<?xml version="1.0" encoding="UTF-8" standalone="no"?>
<!DOCTYPE svg PUBLIC "-//W3C//DTD SVG 1.1//EN"
 "http://www.w3.org/Graphics/SVG/1.1/DTD/svg11.dtd">
<!-- Generated by graphviz version 2.43.0 (0)
 -->
<!-- Title: hasseD2 Pages: 1 -->
<svg width="592pt" height="692pt"
 viewBox="0.00 0.00 591.89 692.00" xmlns="http://www.w3.org/2000/svg" xmlns:xlink="http://www.w3.org/1999/xlink">
<g id="graph0" class="graph" transform="scale(1 1) rotate(0) translate(4 688)">
<title>hasseD2</title>
<polygon fill="white" stroke="transparent" points="-4,4 -4,-688 587.89,-688 587.89,4 -4,4"/>
<!-- [3/6,3/3] -->
<g id="node1" class="node">
<title>[3/6,3/3]</title>
<ellipse fill="none" stroke="black" cx="385.45" cy="-18" rx="47.39" ry="18"/>
<text text-anchor="middle" x="385.45" y="-14.3" font-family="Helvetica:bold" font-size="14.00" fill="#e41a1c">[3/6,3/3]</text>
</g>
<!-- [3/6,2/3] -->
<g id="node3" class="node">
<title>[3/6,2/3]</title>
<ellipse fill="none" stroke="black" cx="385.45" cy="-90" rx="47.39" ry="18"/>
<text text-anchor="middle" x="385.45" y="-86.3" font-family="Helvetica:bold" font-size="14.00" fill="#e41a1c">[3/6,2/3]</text>
</g>
<!-- [3/6,3/3]&#45;&gt;[3/6,2/3] -->
<g id="edge4" class="edge">
<title>[3/6,3/3]&#45;&gt;[3/6,2/3]</title>
<path fill="none" stroke="black" d="M385.45,-36.3C385.45,-44.02 385.45,-53.29 385.45,-61.89"/>
<polygon fill="black" stroke="black" points="381.95,-61.9 385.45,-71.9 388.95,-61.9 381.95,-61.9"/>
</g>
<!-- [3/6,3/6] -->
<g id="node4" class="node">
<title>[3/6,3/6]</title>
<ellipse fill="none" stroke="black" cx="460.45" cy="-162" rx="47.39" ry="18"/>
<text text-anchor="middle" x="460.45" y="-158.3" font-family="Helvetica:bold" font-size="14.00" fill="#e41a1c">[3/6,3/6]</text>
</g>
<!-- [3/6,3/3]&#45;&gt;[3/6,3/6] -->
<g id="edge3" class="edge">
<title>[3/6,3/3]&#45;&gt;[3/6,3/6]</title>
<path fill="none" stroke="black" d="M406.88,-34.07C418.84,-43.6 432.99,-56.94 441.45,-72 452.12,-91 456.8,-115.36 458.86,-133.79"/>
<polygon fill="black" stroke="black" points="455.38,-134.24 459.79,-143.87 462.35,-133.59 455.38,-134.24"/>
</g>
<!-- [3/6,0/0] -->
<g id="node13" class="node">
<title>[3/6,0/0]</title>
<ellipse fill="none" stroke="black" cx="123.45" cy="-306" rx="47.39" ry="18"/>
<text text-anchor="middle" x="123.45" y="-302.3" font-family="Helvetica:bold" font-size="14.00" fill="#e41a1c">[3/6,0/0]</text>
</g>
<!-- [3/6,3/3]&#45;&gt;[3/6,0/0] -->
<g id="edge5" class="edge">
<title>[3/6,3/3]&#45;&gt;[3/6,0/0]</title>
<path fill="none" stroke="black" d="M342.24,-25.49C282.84,-37.1 179.05,-67.82 141.45,-144 120.19,-187.05 119.28,-244.27 121.03,-277.63"/>
<polygon fill="black" stroke="black" points="117.56,-278.22 121.7,-287.97 124.55,-277.76 117.56,-278.22"/>
</g>
<!-- [3/6,4/6] -->
<g id="node2" class="node">
<title>[3/6,4/6]</title>
<ellipse fill="none" stroke="black" cx="272.45" cy="-90" rx="47.39" ry="18"/>
<text text-anchor="middle" x="272.45" y="-86.3" font-family="Helvetica:bold" font-size="14.00" fill="#e41a1c">[3/6,4/6]</text>
</g>
<!-- [3/6,4/6]&#45;&gt;[3/6,3/6] -->
<g id="edge1" class="edge">
<title>[3/6,4/6]&#45;&gt;[3/6,3/6]</title>
<path fill="none" stroke="black" d="M305.19,-103.19C336.5,-114.85 383.87,-132.49 418.05,-145.21"/>
<polygon fill="black" stroke="black" points="417.17,-148.62 427.76,-148.83 419.61,-142.06 417.17,-148.62"/>
</g>
<!-- [2/6,2/3] -->
<g id="node9" class="node">
<title>[2/6,2/3]</title>
<ellipse fill="none" stroke="black" cx="273.45" cy="-234" rx="47.39" ry="18"/>
<text text-anchor="middle" x="273.45" y="-230.3" font-family="Helvetica:bold" font-size="14.00" fill="#e41a1c">[2/6,2/3]</text>
</g>
<!-- [3/6,4/6]&#45;&gt;[2/6,2/3] -->
<g id="edge2" class="edge">
<title>[3/6,4/6]&#45;&gt;[2/6,2/3]</title>
<path fill="none" stroke="black" d="M272.57,-108.13C272.74,-132.33 273.05,-176.79 273.25,-205.61"/>
<polygon fill="black" stroke="black" points="269.75,-205.84 273.32,-215.81 276.75,-205.79 269.75,-205.84"/>
</g>
<!-- [2/6,3/3] -->
<g id="node5" class="node">
<title>[2/6,3/3]</title>
<ellipse fill="none" stroke="black" cx="347.45" cy="-162" rx="47.39" ry="18"/>
<text text-anchor="middle" x="347.45" y="-158.3" font-family="Helvetica:bold" font-size="14.00" fill="#e41a1c">[2/6,3/3]</text>
</g>
<!-- [3/6,2/3]&#45;&gt;[2/6,3/3] -->
<g id="edge11" class="edge">
<title>[3/6,2/3]&#45;&gt;[2/6,3/3]</title>
<path fill="none" stroke="black" d="M376.25,-107.95C371.81,-116.11 366.4,-126.09 361.46,-135.18"/>
<polygon fill="black" stroke="black" points="358.25,-133.75 356.56,-144.21 364.41,-137.09 358.25,-133.75"/>
</g>
<!-- [3/6,2/6] -->
<g id="node8" class="node">
<title>[3/6,2/6]</title>
<ellipse fill="none" stroke="black" cx="536.45" cy="-234" rx="47.39" ry="18"/>
<text text-anchor="middle" x="536.45" y="-230.3" font-family="Helvetica:bold" font-size="14.00" fill="#e41a1c">[3/6,2/6]</text>
</g>
<!-- [3/6,2/3]&#45;&gt;[3/6,2/6] -->
<g id="edge10" class="edge">
<title>[3/6,2/3]&#45;&gt;[3/6,2/6]</title>
<path fill="none" stroke="black" d="M428.38,-97.73C457.39,-104.51 494.3,-117.91 516.45,-144 530.97,-161.12 535.54,-186.56 536.73,-205.87"/>
<polygon fill="black" stroke="black" points="533.23,-206 537.08,-215.87 540.23,-205.75 533.23,-206"/>
</g>
<!-- [2/6,4/6] -->
<g id="node7" class="node">
<title>[2/6,4/6]</title>
<ellipse fill="none" stroke="black" cx="386.45" cy="-234" rx="47.39" ry="18"/>
<text text-anchor="middle" x="386.45" y="-230.3" font-family="Helvetica:bold" font-size="14.00" fill="#e41a1c">[2/6,4/6]</text>
</g>
<!-- [3/6,3/6]&#45;&gt;[2/6,4/6] -->
<g id="edge6" class="edge">
<title>[3/6,3/6]&#45;&gt;[2/6,4/6]</title>
<path fill="none" stroke="black" d="M443.65,-178.88C433.98,-188.04 421.64,-199.71 410.9,-209.87"/>
<polygon fill="black" stroke="black" points="408.29,-207.52 403.43,-216.94 413.1,-212.61 408.29,-207.52"/>
</g>
<!-- [3/6,3/6]&#45;&gt;[3/6,2/6] -->
<g id="edge7" class="edge">
<title>[3/6,3/6]&#45;&gt;[3/6,2/6]</title>
<path fill="none" stroke="black" d="M477.69,-178.88C487.8,-188.19 500.73,-200.1 511.88,-210.38"/>
<polygon fill="black" stroke="black" points="509.54,-212.98 519.27,-217.18 514.28,-207.83 509.54,-212.98"/>
</g>
<!-- [2/6,3/3]&#45;&gt;[2/6,2/3] -->
<g id="edge14" class="edge">
<title>[2/6,3/3]&#45;&gt;[2/6,2/3]</title>
<path fill="none" stroke="black" d="M330.65,-178.88C320.98,-188.04 308.64,-199.71 297.9,-209.87"/>
<polygon fill="black" stroke="black" points="295.29,-207.52 290.43,-216.94 300.1,-212.61 295.29,-207.52"/>
</g>
<!-- [2/6,3/6] -->
<g id="node11" class="node">
<title>[2/6,3/6]</title>
<ellipse fill="none" stroke="black" cx="461.45" cy="-306" rx="47.39" ry="18"/>
<text text-anchor="middle" x="461.45" y="-302.3" font-family="Helvetica:bold" font-size="14.00" fill="#e41a1c">[2/6,3/6]</text>
</g>
<!-- [2/6,3/3]&#45;&gt;[2/6,3/6] -->
<g id="edge13" class="edge">
<title>[2/6,3/3]&#45;&gt;[2/6,3/6]</title>
<path fill="none" stroke="black" d="M382.76,-174.33C403.22,-182.69 427.75,-196.1 442.45,-216 455.61,-233.83 460.05,-258.83 461.38,-277.8"/>
<polygon fill="black" stroke="black" points="457.89,-278.07 461.84,-287.9 464.88,-277.76 457.89,-278.07"/>
</g>
<!-- [2/6,0/0] -->
<g id="node20" class="node">
<title>[2/6,0/0]</title>
<ellipse fill="none" stroke="black" cx="123.45" cy="-450" rx="47.39" ry="18"/>
<text text-anchor="middle" x="123.45" y="-446.3" font-family="Helvetica:bold" font-size="14.00" fill="#e41a1c">[2/6,0/0]</text>
</g>
<!-- [2/6,3/3]&#45;&gt;[2/6,0/0] -->
<g id="edge15" class="edge">
<title>[2/6,3/3]&#45;&gt;[2/6,0/0]</title>
<path fill="none" stroke="black" d="M305.75,-170.64C277.39,-177.85 240.89,-191.38 217.45,-216 182.35,-252.85 198.31,-276.74 179.45,-324 165.59,-358.71 147.65,-397.9 135.85,-423"/>
<polygon fill="black" stroke="black" points="132.61,-421.67 131.5,-432.21 138.94,-424.66 132.61,-421.67"/>
</g>
<!-- [4/6,0/0] -->
<g id="node6" class="node">
<title>[4/6,0/0]</title>
<ellipse fill="none" stroke="black" cx="197.45" cy="-162" rx="47.39" ry="18"/>
<text text-anchor="middle" x="197.45" y="-158.3" font-family="Helvetica:bold" font-size="14.00" fill="#e41a1c">[4/6,0/0]</text>
</g>
<!-- [4/6,0/0]&#45;&gt;[2/6,2/3] -->
<g id="edge20" class="edge">
<title>[4/6,0/0]&#45;&gt;[2/6,2/3]</title>
<path fill="none" stroke="black" d="M214.69,-178.88C224.8,-188.19 237.73,-200.1 248.88,-210.38"/>
<polygon fill="black" stroke="black" points="246.54,-212.98 256.27,-217.18 251.28,-207.83 246.54,-212.98"/>
</g>
<!-- [4/6,0/0]&#45;&gt;[3/6,0/0] -->
<g id="edge21" class="edge">
<title>[4/6,0/0]&#45;&gt;[3/6,0/0]</title>
<path fill="none" stroke="black" d="M188.67,-179.85C175.87,-204.4 151.99,-250.23 136.95,-279.09"/>
<polygon fill="black" stroke="black" points="133.73,-277.69 132.21,-288.18 139.94,-280.92 133.73,-277.69"/>
</g>
<!-- [2/6,4/6]&#45;&gt;[2/6,3/6] -->
<g id="edge8" class="edge">
<title>[2/6,4/6]&#45;&gt;[2/6,3/6]</title>
<path fill="none" stroke="black" d="M403.46,-250.88C413.34,-260.1 425.95,-271.87 436.89,-282.08"/>
<polygon fill="black" stroke="black" points="434.8,-284.91 444.49,-289.18 439.57,-279.8 434.8,-284.91"/>
</g>
<!-- [1/6,2/3] -->
<g id="node16" class="node">
<title>[1/6,2/3]</title>
<ellipse fill="none" stroke="black" cx="236.45" cy="-378" rx="47.39" ry="18"/>
<text text-anchor="middle" x="236.45" y="-374.3" font-family="Helvetica:bold" font-size="14.00" fill="#377eb8">[1/6,2/3]</text>
</g>
<!-- [2/6,4/6]&#45;&gt;[1/6,2/3] -->
<g id="edge9" class="edge">
<title>[2/6,4/6]&#45;&gt;[1/6,2/3]</title>
<path fill="none" stroke="black" d="M350,-245.53C315.78,-256.13 268.03,-273.01 255.45,-288 241.11,-305.07 236.81,-330.36 235.83,-349.62"/>
<polygon fill="black" stroke="black" points="232.33,-349.81 235.59,-359.89 239.32,-349.97 232.33,-349.81"/>
</g>
<!-- [3/6,2/6]&#45;&gt;[2/6,3/6] -->
<g id="edge12" class="edge">
<title>[3/6,2/6]&#45;&gt;[2/6,3/6]</title>
<path fill="none" stroke="black" d="M519.43,-250.88C509.55,-260.1 496.94,-271.87 486,-282.08"/>
<polygon fill="black" stroke="black" points="483.32,-279.8 478.4,-289.18 488.1,-284.91 483.32,-279.8"/>
</g>
<!-- [1/6,3/3] -->
<g id="node12" class="node">
<title>[1/6,3/3]</title>
<ellipse fill="none" stroke="black" cx="311.45" cy="-306" rx="47.39" ry="18"/>
<text text-anchor="middle" x="311.45" y="-302.3" font-family="Helvetica:bold" font-size="14.00" fill="#377eb8">[1/6,3/3]</text>
</g>
<!-- [2/6,2/3]&#45;&gt;[1/6,3/3] -->
<g id="edge23" class="edge">
<title>[2/6,2/3]&#45;&gt;[1/6,3/3]</title>
<path fill="none" stroke="black" d="M282.64,-251.95C287.08,-260.11 292.49,-270.09 297.43,-279.18"/>
<polygon fill="black" stroke="black" points="294.48,-281.09 302.33,-288.21 300.64,-277.75 294.48,-281.09"/>
</g>
<!-- [2/6,2/6] -->
<g id="node15" class="node">
<title>[2/6,2/6]</title>
<ellipse fill="none" stroke="black" cx="386.45" cy="-378" rx="47.39" ry="18"/>
<text text-anchor="middle" x="386.45" y="-374.3" font-family="Helvetica:bold" font-size="14.00" fill="#e41a1c">[2/6,2/6]</text>
</g>
<!-- [2/6,2/3]&#45;&gt;[2/6,2/6] -->
<g id="edge22" class="edge">
<title>[2/6,2/3]&#45;&gt;[2/6,2/6]</title>
<path fill="none" stroke="black" d="M308.4,-246.42C328.64,-254.81 352.91,-268.22 367.45,-288 380.57,-305.85 385.02,-330.86 386.35,-349.82"/>
<polygon fill="black" stroke="black" points="382.86,-350.09 386.82,-359.92 389.86,-349.77 382.86,-350.09"/>
</g>
<!-- [3/3,0/0] -->
<g id="node10" class="node">
<title>[3/3,0/0]</title>
<ellipse fill="none" stroke="black" cx="47.45" cy="-234" rx="47.39" ry="18"/>
<text text-anchor="middle" x="47.45" y="-230.3" font-family="Helvetica:bold" font-size="14.00" fill="#e41a1c">[3/3,0/0]</text>
</g>
<!-- [3/3,0/0]&#45;&gt;[3/6,0/0] -->
<g id="edge31" class="edge">
<title>[3/3,0/0]&#45;&gt;[3/6,0/0]</title>
<path fill="none" stroke="black" d="M64.69,-250.88C74.8,-260.19 87.73,-272.1 98.88,-282.38"/>
<polygon fill="black" stroke="black" points="96.54,-284.98 106.27,-289.18 101.28,-279.83 96.54,-284.98"/>
</g>
<!-- [2/3,0/0] -->
<g id="node17" class="node">
<title>[2/3,0/0]</title>
<ellipse fill="none" stroke="black" cx="48.45" cy="-378" rx="47.39" ry="18"/>
<text text-anchor="middle" x="48.45" y="-374.3" font-family="Helvetica:bold" font-size="14.00" fill="#e41a1c">[2/3,0/0]</text>
</g>
<!-- [3/3,0/0]&#45;&gt;[2/3,0/0] -->
<g id="edge32" class="edge">
<title>[3/3,0/0]&#45;&gt;[2/3,0/0]</title>
<path fill="none" stroke="black" d="M47.57,-252.13C47.74,-276.33 48.05,-320.79 48.25,-349.61"/>
<polygon fill="black" stroke="black" points="44.75,-349.84 48.32,-359.81 51.75,-349.79 44.75,-349.84"/>
</g>
<!-- [1/6,4/6] -->
<g id="node14" class="node">
<title>[1/6,4/6]</title>
<ellipse fill="none" stroke="black" cx="499.45" cy="-378" rx="47.39" ry="18"/>
<text text-anchor="middle" x="499.45" y="-374.3" font-family="Helvetica:bold" font-size="14.00" fill="#377eb8">[1/6,4/6]</text>
</g>
<!-- [2/6,3/6]&#45;&gt;[1/6,4/6] -->
<g id="edge16" class="edge">
<title>[2/6,3/6]&#45;&gt;[1/6,4/6]</title>
<path fill="none" stroke="black" d="M470.64,-323.95C475.08,-332.11 480.49,-342.09 485.43,-351.18"/>
<polygon fill="black" stroke="black" points="482.48,-353.09 490.33,-360.21 488.64,-349.75 482.48,-353.09"/>
</g>
<!-- [2/6,3/6]&#45;&gt;[2/6,2/6] -->
<g id="edge17" class="edge">
<title>[2/6,3/6]&#45;&gt;[2/6,2/6]</title>
<path fill="none" stroke="black" d="M444.43,-322.88C434.55,-332.1 421.94,-343.87 411,-354.08"/>
<polygon fill="black" stroke="black" points="408.32,-351.8 403.4,-361.18 413.1,-356.91 408.32,-351.8"/>
</g>
<!-- [1/6,3/3]&#45;&gt;[1/6,2/3] -->
<g id="edge26" class="edge">
<title>[1/6,3/3]&#45;&gt;[1/6,2/3]</title>
<path fill="none" stroke="black" d="M294.43,-322.88C284.55,-332.1 271.94,-343.87 261,-354.08"/>
<polygon fill="black" stroke="black" points="258.32,-351.8 253.4,-361.18 263.1,-356.91 258.32,-351.8"/>
</g>
<!-- [1/6,3/6] -->
<g id="node18" class="node">
<title>[1/6,3/6]</title>
<ellipse fill="none" stroke="black" cx="386.45" cy="-450" rx="47.39" ry="18"/>
<text text-anchor="middle" x="386.45" y="-446.3" font-family="Helvetica:bold" font-size="14.00" fill="#377eb8">[1/6,3/6]</text>
</g>
<!-- [1/6,3/3]&#45;&gt;[1/6,3/6] -->
<g id="edge25" class="edge">
<title>[1/6,3/3]&#45;&gt;[1/6,3/6]</title>
<path fill="none" stroke="black" d="M312.1,-324.13C313.48,-342.87 317.68,-373.27 330.45,-396 337.12,-407.88 347.34,-418.69 357.23,-427.41"/>
<polygon fill="black" stroke="black" points="355.1,-430.19 365.02,-433.93 359.59,-424.82 355.1,-430.19"/>
</g>
<!-- [3/6,0/0]&#45;&gt;[1/6,2/3] -->
<g id="edge33" class="edge">
<title>[3/6,0/0]&#45;&gt;[1/6,2/3]</title>
<path fill="none" stroke="black" d="M147.13,-321.67C163.71,-331.94 186.05,-345.78 204.24,-357.05"/>
<polygon fill="black" stroke="black" points="202.44,-360.05 212.79,-362.35 206.13,-354.1 202.44,-360.05"/>
</g>
<!-- [3/6,0/0]&#45;&gt;[2/6,0/0] -->
<g id="edge34" class="edge">
<title>[3/6,0/0]&#45;&gt;[2/6,0/0]</title>
<path fill="none" stroke="black" d="M123.45,-324.13C123.45,-348.33 123.45,-392.79 123.45,-421.61"/>
<polygon fill="black" stroke="black" points="119.95,-421.81 123.45,-431.81 126.95,-421.81 119.95,-421.81"/>
</g>
<!-- [1/6,4/6]&#45;&gt;[1/6,3/6] -->
<g id="edge18" class="edge">
<title>[1/6,4/6]&#45;&gt;[1/6,3/6]</title>
<path fill="none" stroke="black" d="M475.76,-393.67C459.18,-403.94 436.85,-417.78 418.66,-429.05"/>
<polygon fill="black" stroke="black" points="416.76,-426.1 410.1,-434.35 420.45,-432.05 416.76,-426.1"/>
</g>
<!-- [0/6,2/3] -->
<g id="node23" class="node">
<title>[0/6,2/3]</title>
<ellipse fill="none" stroke="black" cx="348.45" cy="-522" rx="47.39" ry="18"/>
<text text-anchor="middle" x="348.45" y="-518.3" font-family="Helvetica:bold" font-size="14.00" fill="#377eb8">[0/6,2/3]</text>
</g>
<!-- [1/6,4/6]&#45;&gt;[0/6,2/3] -->
<g id="edge19" class="edge">
<title>[1/6,4/6]&#45;&gt;[0/6,2/3]</title>
<path fill="none" stroke="black" d="M491.81,-395.81C482.39,-415.11 464.85,-446.82 442.45,-468 426.79,-482.8 406.24,-494.99 388.35,-503.94"/>
<polygon fill="black" stroke="black" points="386.76,-500.82 379.28,-508.32 389.8,-507.12 386.76,-500.82"/>
</g>
<!-- [2/6,2/6]&#45;&gt;[1/6,3/6] -->
<g id="edge24" class="edge">
<title>[2/6,2/6]&#45;&gt;[1/6,3/6]</title>
<path fill="none" stroke="black" d="M386.45,-396.3C386.45,-404.02 386.45,-413.29 386.45,-421.89"/>
<polygon fill="black" stroke="black" points="382.95,-421.9 386.45,-431.9 389.95,-421.9 382.95,-421.9"/>
</g>
<!-- [0/6,3/3] -->
<g id="node19" class="node">
<title>[0/6,3/3]</title>
<ellipse fill="none" stroke="black" cx="273.45" cy="-450" rx="47.39" ry="18"/>
<text text-anchor="middle" x="273.45" y="-446.3" font-family="Helvetica:bold" font-size="14.00" fill="#377eb8">[0/6,3/3]</text>
</g>
<!-- [1/6,2/3]&#45;&gt;[0/6,3/3] -->
<g id="edge36" class="edge">
<title>[1/6,2/3]&#45;&gt;[0/6,3/3]</title>
<path fill="none" stroke="black" d="M245.4,-395.95C249.72,-404.11 254.99,-414.09 259.8,-423.18"/>
<polygon fill="black" stroke="black" points="256.8,-425.01 264.57,-432.21 262.99,-421.73 256.8,-425.01"/>
</g>
<!-- [1/6,2/6] -->
<g id="node22" class="node">
<title>[1/6,2/6]</title>
<ellipse fill="none" stroke="black" cx="198.45" cy="-522" rx="47.39" ry="18"/>
<text text-anchor="middle" x="198.45" y="-518.3" font-family="Helvetica:bold" font-size="14.00" fill="#377eb8">[1/6,2/6]</text>
</g>
<!-- [1/6,2/3]&#45;&gt;[1/6,2/6] -->
<g id="edge35" class="edge">
<title>[1/6,2/3]&#45;&gt;[1/6,2/6]</title>
<path fill="none" stroke="black" d="M229.7,-396C225.77,-406.3 220.92,-419.78 217.45,-432 211.64,-452.39 206.7,-475.85 203.32,-493.56"/>
<polygon fill="black" stroke="black" points="199.81,-493.3 201.42,-503.77 206.69,-494.58 199.81,-493.3"/>
</g>
<!-- [2/3,0/0]&#45;&gt;[2/6,0/0] -->
<g id="edge43" class="edge">
<title>[2/3,0/0]&#45;&gt;[2/6,0/0]</title>
<path fill="none" stroke="black" d="M65.46,-394.88C75.34,-404.1 87.95,-415.87 98.89,-426.08"/>
<polygon fill="black" stroke="black" points="96.8,-428.91 106.49,-433.18 101.57,-423.8 96.8,-428.91"/>
</g>
<!-- [0/6,4/6] -->
<g id="node21" class="node">
<title>[0/6,4/6]</title>
<ellipse fill="none" stroke="black" cx="461.45" cy="-522" rx="47.39" ry="18"/>
<text text-anchor="middle" x="461.45" y="-518.3" font-family="Helvetica:bold" font-size="14.00" fill="#377eb8">[0/6,4/6]</text>
</g>
<!-- [1/6,3/6]&#45;&gt;[0/6,4/6] -->
<g id="edge27" class="edge">
<title>[1/6,3/6]&#45;&gt;[0/6,4/6]</title>
<path fill="none" stroke="black" d="M403.46,-466.88C413.34,-476.1 425.95,-487.87 436.89,-498.08"/>
<polygon fill="black" stroke="black" points="434.8,-500.91 444.49,-505.18 439.57,-495.8 434.8,-500.91"/>
</g>
<!-- [1/6,3/6]&#45;&gt;[1/6,2/6] -->
<g id="edge28" class="edge">
<title>[1/6,3/6]&#45;&gt;[1/6,2/6]</title>
<path fill="none" stroke="black" d="M353.7,-463.19C322.39,-474.85 275.02,-492.49 240.84,-505.21"/>
<polygon fill="black" stroke="black" points="239.28,-502.06 231.13,-508.83 241.73,-508.62 239.28,-502.06"/>
</g>
<!-- [0/6,3/3]&#45;&gt;[0/6,2/3] -->
<g id="edge40" class="edge">
<title>[0/6,3/3]&#45;&gt;[0/6,2/3]</title>
<path fill="none" stroke="black" d="M290.46,-466.88C300.34,-476.1 312.95,-487.87 323.89,-498.08"/>
<polygon fill="black" stroke="black" points="321.8,-500.91 331.49,-505.18 326.57,-495.8 321.8,-500.91"/>
</g>
<!-- [0/6,3/6] -->
<g id="node24" class="node">
<title>[0/6,3/6]</title>
<ellipse fill="none" stroke="black" cx="319.45" cy="-594" rx="47.39" ry="18"/>
<text text-anchor="middle" x="319.45" y="-590.3" font-family="Helvetica:bold" font-size="14.00" fill="#377eb8">[0/6,3/6]</text>
</g>
<!-- [0/6,3/3]&#45;&gt;[0/6,3/6] -->
<g id="edge39" class="edge">
<title>[0/6,3/3]&#45;&gt;[0/6,3/6]</title>
<path fill="none" stroke="black" d="M275.74,-468.09C278.49,-486.28 283.84,-515.73 292.45,-540 295.71,-549.19 300.24,-558.82 304.65,-567.3"/>
<polygon fill="black" stroke="black" points="301.69,-569.18 309.52,-576.32 307.85,-565.85 301.69,-569.18"/>
</g>
<!-- [2/6,0/0]&#45;&gt;[0/6,2/3] -->
<g id="edge45" class="edge">
<title>[2/6,0/0]&#45;&gt;[0/6,2/3]</title>
<path fill="none" stroke="black" d="M159.1,-462.09C198.1,-474.23 260.71,-493.71 303.16,-506.91"/>
<polygon fill="black" stroke="black" points="302.37,-510.33 312.96,-509.96 304.45,-503.65 302.37,-510.33"/>
</g>
<!-- [1/6,1/6] -->
<g id="node25" class="node">
<title>[1/6,1/6]</title>
<ellipse fill="none" stroke="black" cx="160.45" cy="-594" rx="47.39" ry="18"/>
<text text-anchor="middle" x="160.45" y="-590.3" font-family="Helvetica:bold" font-size="14.00" fill="#4daf4a">[1/6,1/6]</text>
</g>
<!-- [2/6,0/0]&#45;&gt;[1/6,1/6] -->
<g id="edge44" class="edge">
<title>[2/6,0/0]&#45;&gt;[1/6,1/6]</title>
<path fill="none" stroke="black" d="M126.5,-468.21C129.84,-486.24 135.65,-515.32 142.45,-540 144.83,-548.66 147.84,-557.97 150.71,-566.34"/>
<polygon fill="black" stroke="black" points="147.48,-567.7 154.1,-575.97 154.08,-565.38 147.48,-567.7"/>
</g>
<!-- [0/6,4/6]&#45;&gt;[0/6,3/6] -->
<g id="edge29" class="edge">
<title>[0/6,4/6]&#45;&gt;[0/6,3/6]</title>
<path fill="none" stroke="black" d="M433.73,-536.66C411.78,-547.48 380.92,-562.7 356.79,-574.59"/>
<polygon fill="black" stroke="black" points="355,-571.57 347.58,-579.13 358.09,-577.85 355,-571.57"/>
</g>
<!-- [0/3,1/6] -->
<g id="node26" class="node">
<title>[0/3,1/6]</title>
<ellipse fill="none" stroke="black" cx="432.45" cy="-594" rx="47.39" ry="18"/>
<text text-anchor="middle" x="432.45" y="-590.3" font-family="Helvetica:bold" font-size="14.00" fill="#4daf4a">[0/3,1/6]</text>
</g>
<!-- [0/6,4/6]&#45;&gt;[0/3,1/6] -->
<g id="edge30" class="edge">
<title>[0/6,4/6]&#45;&gt;[0/3,1/6]</title>
<path fill="none" stroke="black" d="M454.43,-539.95C451.16,-547.82 447.2,-557.38 443.55,-566.21"/>
<polygon fill="black" stroke="black" points="440.2,-565.15 439.6,-575.72 446.66,-567.83 440.2,-565.15"/>
</g>
<!-- [1/6,2/6]&#45;&gt;[0/6,3/6] -->
<g id="edge37" class="edge">
<title>[1/6,2/6]&#45;&gt;[0/6,3/6]</title>
<path fill="none" stroke="black" d="M223.52,-537.5C241.53,-547.92 266,-562.08 285.72,-573.49"/>
<polygon fill="black" stroke="black" points="284,-576.54 294.41,-578.51 287.5,-570.48 284,-576.54"/>
</g>
<!-- [1/6,2/6]&#45;&gt;[1/6,1/6] -->
<g id="edge38" class="edge">
<title>[1/6,2/6]&#45;&gt;[1/6,1/6]</title>
<path fill="none" stroke="black" d="M189.25,-539.95C184.81,-548.11 179.4,-558.09 174.46,-567.18"/>
<polygon fill="black" stroke="black" points="171.25,-565.75 169.56,-576.21 177.41,-569.09 171.25,-565.75"/>
</g>
<!-- [0/6,2/3]&#45;&gt;[0/3,1/6] -->
<g id="edge49" class="edge">
<title>[0/6,2/3]&#45;&gt;[0/3,1/6]</title>
<path fill="none" stroke="black" d="M367.51,-538.88C378.86,-548.35 393.45,-560.5 405.92,-570.89"/>
<polygon fill="black" stroke="black" points="403.83,-573.71 413.75,-577.42 408.31,-568.33 403.83,-573.71"/>
</g>
<!-- [0/6,2/6] -->
<g id="node27" class="node">
<title>[0/6,2/6]</title>
<ellipse fill="none" stroke="black" cx="254.45" cy="-666" rx="47.39" ry="18"/>
<text text-anchor="middle" x="254.45" y="-662.3" font-family="Helvetica:bold" font-size="14.00" fill="#377eb8">[0/6,2/6]</text>
</g>
<!-- [0/6,2/3]&#45;&gt;[0/6,2/6] -->
<g id="edge48" class="edge">
<title>[0/6,2/3]&#45;&gt;[0/6,2/6]</title>
<path fill="none" stroke="black" d="M315.2,-535.13C296.8,-543.65 275.31,-556.96 263.45,-576 252,-594.38 250.35,-619.13 251.22,-637.87"/>
<polygon fill="black" stroke="black" points="247.73,-638.13 251.95,-647.85 254.71,-637.62 247.73,-638.13"/>
</g>
<!-- [0/6,3/6]&#45;&gt;[0/6,2/6] -->
<g id="edge41" class="edge">
<title>[0/6,3/6]&#45;&gt;[0/6,2/6]</title>
<path fill="none" stroke="black" d="M304.37,-611.24C296.08,-620.16 285.65,-631.39 276.47,-641.28"/>
<polygon fill="black" stroke="black" points="273.68,-639.14 269.44,-648.85 278.81,-643.91 273.68,-639.14"/>
</g>
<!-- [0/3,0/6] -->
<g id="node29" class="node">
<title>[0/3,0/6]</title>
<ellipse fill="none" stroke="black" cx="395.45" cy="-666" rx="47.39" ry="18"/>
<text text-anchor="middle" x="395.45" y="-662.3" font-family="Helvetica:bold" font-size="14.00" fill="#4daf4a">[0/3,0/6]</text>
</g>
<!-- [0/6,3/6]&#45;&gt;[0/3,0/6] -->
<g id="edge42" class="edge">
<title>[0/6,3/6]&#45;&gt;[0/3,0/6]</title>
<path fill="none" stroke="black" d="M336.69,-610.88C346.8,-620.19 359.73,-632.1 370.88,-642.38"/>
<polygon fill="black" stroke="black" points="368.54,-644.98 378.27,-649.18 373.28,-639.83 368.54,-644.98"/>
</g>
<!-- [1/6,1/6]&#45;&gt;[0/6,2/6] -->
<g id="edge46" class="edge">
<title>[1/6,1/6]&#45;&gt;[0/6,2/6]</title>
<path fill="none" stroke="black" d="M181.31,-610.54C194.42,-620.3 211.51,-633.03 225.87,-643.72"/>
<polygon fill="black" stroke="black" points="223.85,-646.58 233.97,-649.75 228.04,-640.97 223.85,-646.58"/>
</g>
<!-- [1/6,0/6] -->
<g id="node28" class="node">
<title>[1/6,0/6]</title>
<ellipse fill="none" stroke="black" cx="141.45" cy="-666" rx="47.39" ry="18"/>
<text text-anchor="middle" x="141.45" y="-662.3" font-family="Helvetica:bold" font-size="14.00" fill="#4daf4a">[1/6,0/6]</text>
</g>
<!-- [1/6,1/6]&#45;&gt;[1/6,0/6] -->
<g id="edge47" class="edge">
<title>[1/6,1/6]&#45;&gt;[1/6,0/6]</title>
<path fill="none" stroke="black" d="M155.85,-611.95C153.73,-619.74 151.17,-629.18 148.8,-637.92"/>
<polygon fill="black" stroke="black" points="145.38,-637.16 146.13,-647.72 152.13,-638.99 145.38,-637.16"/>
</g>
<!-- [0/3,1/6]&#45;&gt;[0/3,0/6] -->
<g id="edge50" class="edge">
<title>[0/3,1/6]&#45;&gt;[0/3,0/6]</title>
<path fill="none" stroke="black" d="M423.49,-611.95C419.17,-620.11 413.9,-630.09 409.1,-639.18"/>
<polygon fill="black" stroke="black" points="405.9,-637.73 404.32,-648.21 412.09,-641.01 405.9,-637.73"/>
</g>
</g>
</svg>
