<?xml version="1.0" encoding="UTF-8" standalone="no"?>
<!DOCTYPE svg PUBLIC "-//W3C//DTD SVG 1.1//EN"
 "http://www.w3.org/Graphics/SVG/1.1/DTD/svg11.dtd">
<!-- Generated by graphviz version 2.43.0 (0)
 -->
<!-- Title: hasseD2 Pages: 1 -->
<svg width="707pt" height="692pt"
 viewBox="0.00 0.00 706.89 692.00" xmlns="http://www.w3.org/2000/svg" xmlns:xlink="http://www.w3.org/1999/xlink">
<g id="graph0" class="graph" transform="scale(1 1) rotate(0) translate(4 688)">
<title>hasseD2</title>
<polygon fill="white" stroke="transparent" points="-4,4 -4,-688 702.89,-688 702.89,4 -4,4"/>
<!-- [3/6,3/3] -->
<g id="node1" class="node">
<title>[3/6,3/3]</title>
<ellipse fill="none" stroke="black" cx="350.45" cy="-18" rx="47.39" ry="18"/>
<text text-anchor="middle" x="350.45" y="-14.3" font-family="Helvetica:bold" font-size="14.00" fill="#e41a1c">[3/6,3/3]</text>
</g>
<!-- [3/6,2/3] -->
<g id="node3" class="node">
<title>[3/6,2/3]</title>
<ellipse fill="none" stroke="black" cx="350.45" cy="-90" rx="47.39" ry="18"/>
<text text-anchor="middle" x="350.45" y="-86.3" font-family="Helvetica:bold" font-size="14.00" fill="#e41a1c">[3/6,2/3]</text>
</g>
<!-- [3/6,3/3]&#45;&gt;[3/6,2/3] -->
<g id="edge2" class="edge">
<title>[3/6,3/3]&#45;&gt;[3/6,2/3]</title>
<path fill="none" stroke="black" d="M350.45,-36.3C350.45,-44.02 350.45,-53.29 350.45,-61.89"/>
<polygon fill="black" stroke="black" points="346.95,-61.9 350.45,-71.9 353.95,-61.9 346.95,-61.9"/>
</g>
<!-- [3/6,3/6] -->
<g id="node4" class="node">
<title>[3/6,3/6]</title>
<ellipse fill="none" stroke="black" cx="237.45" cy="-90" rx="47.39" ry="18"/>
<text text-anchor="middle" x="237.45" y="-86.3" font-family="Helvetica:bold" font-size="14.00" fill="#e41a1c">[3/6,3/6]</text>
</g>
<!-- [3/6,3/3]&#45;&gt;[3/6,3/6] -->
<g id="edge3" class="edge">
<title>[3/6,3/3]&#45;&gt;[3/6,3/6]</title>
<path fill="none" stroke="black" d="M326.76,-33.67C310.18,-43.94 287.85,-57.78 269.66,-69.05"/>
<polygon fill="black" stroke="black" points="267.76,-66.1 261.1,-74.35 271.45,-72.05 267.76,-66.1"/>
</g>
<!-- [3/3,0/0] -->
<g id="node9" class="node">
<title>[3/3,0/0]</title>
<ellipse fill="none" stroke="black" cx="651.45" cy="-234" rx="47.39" ry="18"/>
<text text-anchor="middle" x="651.45" y="-230.3" font-family="Helvetica:bold" font-size="14.00" fill="#e41a1c">[3/3,0/0]</text>
</g>
<!-- [3/6,3/3]&#45;&gt;[3/3,0/0] -->
<g id="edge1" class="edge">
<title>[3/6,3/3]&#45;&gt;[3/3,0/0]</title>
<path fill="none" stroke="black" d="M380.95,-32.04C425.87,-52.11 511.21,-93.56 573.45,-144 596.7,-162.85 618.75,-189.07 633.43,-208.16"/>
<polygon fill="black" stroke="black" points="630.82,-210.51 639.64,-216.38 636.41,-206.29 630.82,-210.51"/>
</g>
<!-- [3/6,4/6] -->
<g id="node2" class="node">
<title>[3/6,4/6]</title>
<ellipse fill="none" stroke="black" cx="237.45" cy="-18" rx="47.39" ry="18"/>
<text text-anchor="middle" x="237.45" y="-14.3" font-family="Helvetica:bold" font-size="14.00" fill="#e41a1c">[3/6,4/6]</text>
</g>
<!-- [3/6,4/6]&#45;&gt;[3/6,2/3] -->
<g id="edge6" class="edge">
<title>[3/6,4/6]&#45;&gt;[3/6,2/3]</title>
<path fill="none" stroke="black" d="M261.13,-33.67C277.71,-43.94 300.05,-57.78 318.24,-69.05"/>
<polygon fill="black" stroke="black" points="316.44,-72.05 326.79,-74.35 320.13,-66.1 316.44,-72.05"/>
</g>
<!-- [3/6,4/6]&#45;&gt;[3/6,3/6] -->
<g id="edge7" class="edge">
<title>[3/6,4/6]&#45;&gt;[3/6,3/6]</title>
<path fill="none" stroke="black" d="M237.45,-36.3C237.45,-44.02 237.45,-53.29 237.45,-61.89"/>
<polygon fill="black" stroke="black" points="233.95,-61.9 237.45,-71.9 240.95,-61.9 233.95,-61.9"/>
</g>
<!-- [2/6,3/3] -->
<g id="node6" class="node">
<title>[2/6,3/3]</title>
<ellipse fill="none" stroke="black" cx="350.45" cy="-162" rx="47.39" ry="18"/>
<text text-anchor="middle" x="350.45" y="-158.3" font-family="Helvetica:bold" font-size="14.00" fill="#e41a1c">[2/6,3/3]</text>
</g>
<!-- [3/6,2/3]&#45;&gt;[2/6,3/3] -->
<g id="edge11" class="edge">
<title>[3/6,2/3]&#45;&gt;[2/6,3/3]</title>
<path fill="none" stroke="black" d="M350.45,-108.3C350.45,-116.02 350.45,-125.29 350.45,-133.89"/>
<polygon fill="black" stroke="black" points="346.95,-133.9 350.45,-143.9 353.95,-133.9 346.95,-133.9"/>
</g>
<!-- [3/6,2/6] -->
<g id="node8" class="node">
<title>[3/6,2/6]</title>
<ellipse fill="none" stroke="black" cx="237.45" cy="-162" rx="47.39" ry="18"/>
<text text-anchor="middle" x="237.45" y="-158.3" font-family="Helvetica:bold" font-size="14.00" fill="#e41a1c">[3/6,2/6]</text>
</g>
<!-- [3/6,2/3]&#45;&gt;[3/6,2/6] -->
<g id="edge13" class="edge">
<title>[3/6,2/3]&#45;&gt;[3/6,2/6]</title>
<path fill="none" stroke="black" d="M326.76,-105.67C310.18,-115.94 287.85,-129.78 269.66,-141.05"/>
<polygon fill="black" stroke="black" points="267.76,-138.1 261.1,-146.35 271.45,-144.05 267.76,-138.1"/>
</g>
<!-- [3/6,0/0] -->
<g id="node12" class="node">
<title>[3/6,0/0]</title>
<ellipse fill="none" stroke="black" cx="538.45" cy="-306" rx="47.39" ry="18"/>
<text text-anchor="middle" x="538.45" y="-302.3" font-family="Helvetica:bold" font-size="14.00" fill="#e41a1c">[3/6,0/0]</text>
</g>
<!-- [3/6,2/3]&#45;&gt;[3/6,0/0] -->
<g id="edge12" class="edge">
<title>[3/6,2/3]&#45;&gt;[3/6,0/0]</title>
<path fill="none" stroke="black" d="M395.27,-96.4C448.76,-103.87 533.4,-119.31 552.45,-144 582.39,-182.82 564.93,-243.66 550.83,-278.37"/>
<polygon fill="black" stroke="black" points="547.5,-277.27 546.8,-287.84 553.94,-280.01 547.5,-277.27"/>
</g>
<!-- [2/6,4/6] -->
<g id="node7" class="node">
<title>[2/6,4/6]</title>
<ellipse fill="none" stroke="black" cx="124.45" cy="-162" rx="47.39" ry="18"/>
<text text-anchor="middle" x="124.45" y="-158.3" font-family="Helvetica:bold" font-size="14.00" fill="#e41a1c">[2/6,4/6]</text>
</g>
<!-- [3/6,3/6]&#45;&gt;[2/6,4/6] -->
<g id="edge18" class="edge">
<title>[3/6,3/6]&#45;&gt;[2/6,4/6]</title>
<path fill="none" stroke="black" d="M213.76,-105.67C197.18,-115.94 174.85,-129.78 156.66,-141.05"/>
<polygon fill="black" stroke="black" points="154.76,-138.1 148.1,-146.35 158.45,-144.05 154.76,-138.1"/>
</g>
<!-- [3/6,3/6]&#45;&gt;[3/6,2/6] -->
<g id="edge20" class="edge">
<title>[3/6,3/6]&#45;&gt;[3/6,2/6]</title>
<path fill="none" stroke="black" d="M237.45,-108.3C237.45,-116.02 237.45,-125.29 237.45,-133.89"/>
<polygon fill="black" stroke="black" points="233.95,-133.9 237.45,-143.9 240.95,-133.9 233.95,-133.9"/>
</g>
<!-- [3/6,3/6]&#45;&gt;[3/6,0/0] -->
<g id="edge19" class="edge">
<title>[3/6,3/6]&#45;&gt;[3/6,0/0]</title>
<path fill="none" stroke="black" d="M272.53,-102.25C279.73,-104.34 287.3,-106.37 294.45,-108 343.81,-119.26 484.39,-107.47 519.45,-144 553.62,-179.61 549.89,-241.98 544.15,-277.74"/>
<polygon fill="black" stroke="black" points="540.64,-277.47 542.34,-287.92 547.54,-278.69 540.64,-277.47"/>
</g>
<!-- [4/6,0/0] -->
<g id="node5" class="node">
<title>[4/6,0/0]</title>
<ellipse fill="none" stroke="black" cx="463.45" cy="-162" rx="47.39" ry="18"/>
<text text-anchor="middle" x="463.45" y="-158.3" font-family="Helvetica:bold" font-size="14.00" fill="#e41a1c">[4/6,0/0]</text>
</g>
<!-- [2/6,2/3] -->
<g id="node10" class="node">
<title>[2/6,2/3]</title>
<ellipse fill="none" stroke="black" cx="330.45" cy="-234" rx="47.39" ry="18"/>
<text text-anchor="middle" x="330.45" y="-230.3" font-family="Helvetica:bold" font-size="14.00" fill="#e41a1c">[2/6,2/3]</text>
</g>
<!-- [4/6,0/0]&#45;&gt;[2/6,2/3] -->
<g id="edge10" class="edge">
<title>[4/6,0/0]&#45;&gt;[2/6,2/3]</title>
<path fill="none" stroke="black" d="M436.85,-177C416.55,-187.68 388.39,-202.51 366.13,-214.22"/>
<polygon fill="black" stroke="black" points="364.21,-211.27 356.99,-219.03 367.47,-217.47 364.21,-211.27"/>
</g>
<!-- [4/6,0/0]&#45;&gt;[3/6,0/0] -->
<g id="edge9" class="edge">
<title>[4/6,0/0]&#45;&gt;[3/6,0/0]</title>
<path fill="none" stroke="black" d="M472.34,-179.85C485.31,-204.4 509.52,-250.23 524.76,-279.09"/>
<polygon fill="black" stroke="black" points="521.79,-280.97 529.56,-288.18 527.98,-277.7 521.79,-280.97"/>
</g>
<!-- [2/3,0/0] -->
<g id="node16" class="node">
<title>[2/3,0/0]</title>
<ellipse fill="none" stroke="black" cx="461.45" cy="-378" rx="47.39" ry="18"/>
<text text-anchor="middle" x="461.45" y="-374.3" font-family="Helvetica:bold" font-size="14.00" fill="#e41a1c">[2/3,0/0]</text>
</g>
<!-- [4/6,0/0]&#45;&gt;[2/3,0/0] -->
<g id="edge8" class="edge">
<title>[4/6,0/0]&#45;&gt;[2/3,0/0]</title>
<path fill="none" stroke="black" d="M463.29,-180.15C462.94,-217.17 462.12,-304.82 461.7,-349.61"/>
<polygon fill="black" stroke="black" points="458.2,-349.74 461.61,-359.77 465.2,-349.8 458.2,-349.74"/>
</g>
<!-- [2/6,3/3]&#45;&gt;[2/6,2/3] -->
<g id="edge15" class="edge">
<title>[2/6,3/3]&#45;&gt;[2/6,2/3]</title>
<path fill="none" stroke="black" d="M345.6,-179.95C343.38,-187.74 340.68,-197.18 338.18,-205.92"/>
<polygon fill="black" stroke="black" points="334.76,-205.15 335.38,-215.72 341.49,-207.07 334.76,-205.15"/>
</g>
<!-- [2/6,3/6] -->
<g id="node11" class="node">
<title>[2/6,3/6]</title>
<ellipse fill="none" stroke="black" cx="179.45" cy="-234" rx="47.39" ry="18"/>
<text text-anchor="middle" x="179.45" y="-230.3" font-family="Helvetica:bold" font-size="14.00" fill="#e41a1c">[2/6,3/6]</text>
</g>
<!-- [2/6,3/3]&#45;&gt;[2/6,3/6] -->
<g id="edge16" class="edge">
<title>[2/6,3/3]&#45;&gt;[2/6,3/6]</title>
<path fill="none" stroke="black" d="M319.48,-175.68C291.6,-187.09 250.45,-203.93 219.96,-216.41"/>
<polygon fill="black" stroke="black" points="218.4,-213.27 210.47,-220.3 221.05,-219.75 218.4,-213.27"/>
</g>
<!-- [2/6,3/3]&#45;&gt;[2/3,0/0] -->
<g id="edge14" class="edge">
<title>[2/6,3/3]&#45;&gt;[2/3,0/0]</title>
<path fill="none" stroke="black" d="M362.84,-179.74C370.14,-189.95 379.31,-203.42 386.45,-216 412.52,-261.93 437.28,-318.47 450.81,-350.86"/>
<polygon fill="black" stroke="black" points="447.57,-352.2 454.64,-360.1 454.04,-349.53 447.57,-352.2"/>
</g>
<!-- [2/6,4/6]&#45;&gt;[2/6,2/3] -->
<g id="edge21" class="edge">
<title>[2/6,4/6]&#45;&gt;[2/6,2/3]</title>
<path fill="none" stroke="black" d="M158.46,-174.56C193.5,-186.47 248.25,-205.07 286.53,-218.08"/>
<polygon fill="black" stroke="black" points="285.78,-221.52 296.38,-221.42 288.04,-214.89 285.78,-221.52"/>
</g>
<!-- [2/6,4/6]&#45;&gt;[2/6,3/6] -->
<g id="edge22" class="edge">
<title>[2/6,4/6]&#45;&gt;[2/6,3/6]</title>
<path fill="none" stroke="black" d="M137.48,-179.59C144.26,-188.22 152.68,-198.94 160.2,-208.5"/>
<polygon fill="black" stroke="black" points="157.57,-210.83 166.51,-216.53 163.08,-206.5 157.57,-210.83"/>
</g>
<!-- [3/6,2/6]&#45;&gt;[2/6,3/6] -->
<g id="edge30" class="edge">
<title>[3/6,2/6]&#45;&gt;[2/6,3/6]</title>
<path fill="none" stroke="black" d="M223.7,-179.59C216.48,-188.31 207.49,-199.15 199.5,-208.79"/>
<polygon fill="black" stroke="black" points="196.78,-206.6 193.09,-216.53 202.17,-211.06 196.78,-206.6"/>
</g>
<!-- [3/3,0/0]&#45;&gt;[3/6,0/0] -->
<g id="edge5" class="edge">
<title>[3/3,0/0]&#45;&gt;[3/6,0/0]</title>
<path fill="none" stroke="black" d="M627.76,-249.67C611.18,-259.94 588.85,-273.78 570.66,-285.05"/>
<polygon fill="black" stroke="black" points="568.76,-282.1 562.1,-290.35 572.45,-288.05 568.76,-282.1"/>
</g>
<!-- [3/3,0/0]&#45;&gt;[2/3,0/0] -->
<g id="edge4" class="edge">
<title>[3/3,0/0]&#45;&gt;[2/3,0/0]</title>
<path fill="none" stroke="black" d="M644.46,-252.01C635.54,-271.79 618.36,-304.26 594.45,-324 570.29,-343.94 537.69,-357.1 510.81,-365.31"/>
<polygon fill="black" stroke="black" points="509.81,-361.95 501.19,-368.12 511.77,-368.67 509.81,-361.95"/>
</g>
<!-- [1/6,3/3] -->
<g id="node13" class="node">
<title>[1/6,3/3]</title>
<ellipse fill="none" stroke="black" cx="273.45" cy="-306" rx="47.39" ry="18"/>
<text text-anchor="middle" x="273.45" y="-302.3" font-family="Helvetica:bold" font-size="14.00" fill="#377eb8">[1/6,3/3]</text>
</g>
<!-- [2/6,2/3]&#45;&gt;[1/6,3/3] -->
<g id="edge25" class="edge">
<title>[2/6,2/3]&#45;&gt;[1/6,3/3]</title>
<path fill="none" stroke="black" d="M316.94,-251.59C309.91,-260.22 301.18,-270.94 293.39,-280.5"/>
<polygon fill="black" stroke="black" points="290.46,-278.57 286.86,-288.53 295.89,-282.99 290.46,-278.57"/>
</g>
<!-- [2/6,2/6] -->
<g id="node15" class="node">
<title>[2/6,2/6]</title>
<ellipse fill="none" stroke="black" cx="160.45" cy="-306" rx="47.39" ry="18"/>
<text text-anchor="middle" x="160.45" y="-302.3" font-family="Helvetica:bold" font-size="14.00" fill="#e41a1c">[2/6,2/6]</text>
</g>
<!-- [2/6,2/3]&#45;&gt;[2/6,2/6] -->
<g id="edge27" class="edge">
<title>[2/6,2/3]&#45;&gt;[2/6,2/6]</title>
<path fill="none" stroke="black" d="M299.27,-247.84C271.59,-259.24 230.98,-275.96 200.82,-288.37"/>
<polygon fill="black" stroke="black" points="199.34,-285.2 191.43,-292.24 202.01,-291.67 199.34,-285.2"/>
</g>
<!-- [2/6,0/0] -->
<g id="node19" class="node">
<title>[2/6,0/0]</title>
<ellipse fill="none" stroke="black" cx="424.45" cy="-450" rx="47.39" ry="18"/>
<text text-anchor="middle" x="424.45" y="-446.3" font-family="Helvetica:bold" font-size="14.00" fill="#e41a1c">[2/6,0/0]</text>
</g>
<!-- [2/6,2/3]&#45;&gt;[2/6,0/0] -->
<g id="edge26" class="edge">
<title>[2/6,2/3]&#45;&gt;[2/6,0/0]</title>
<path fill="none" stroke="black" d="M341.6,-251.76C348.14,-261.98 356.3,-275.45 362.45,-288 374.44,-312.5 400.75,-383.64 414.94,-422.65"/>
<polygon fill="black" stroke="black" points="411.65,-423.85 418.35,-432.05 418.23,-421.46 411.65,-423.85"/>
</g>
<!-- [1/6,4/6] -->
<g id="node14" class="node">
<title>[1/6,4/6]</title>
<ellipse fill="none" stroke="black" cx="47.45" cy="-306" rx="47.39" ry="18"/>
<text text-anchor="middle" x="47.45" y="-302.3" font-family="Helvetica:bold" font-size="14.00" fill="#377eb8">[1/6,4/6]</text>
</g>
<!-- [2/6,3/6]&#45;&gt;[1/6,4/6] -->
<g id="edge31" class="edge">
<title>[2/6,3/6]&#45;&gt;[1/6,4/6]</title>
<path fill="none" stroke="black" d="M153.05,-249C132.91,-259.68 104.95,-274.51 82.86,-286.22"/>
<polygon fill="black" stroke="black" points="80.99,-283.25 73.79,-291.03 84.27,-289.43 80.99,-283.25"/>
</g>
<!-- [2/6,3/6]&#45;&gt;[2/6,2/6] -->
<g id="edge33" class="edge">
<title>[2/6,3/6]&#45;&gt;[2/6,2/6]</title>
<path fill="none" stroke="black" d="M174.85,-251.95C172.73,-259.74 170.17,-269.18 167.8,-277.92"/>
<polygon fill="black" stroke="black" points="164.38,-277.16 165.13,-287.72 171.13,-278.99 164.38,-277.16"/>
</g>
<!-- [2/6,3/6]&#45;&gt;[2/6,0/0] -->
<g id="edge32" class="edge">
<title>[2/6,3/6]&#45;&gt;[2/6,0/0]</title>
<path fill="none" stroke="black" d="M222.68,-241.74C255.1,-248.67 298.96,-262.24 329.45,-288 371.38,-323.44 360.96,-349.06 389.45,-396 395.11,-405.33 401.63,-415.37 407.49,-424.18"/>
<polygon fill="black" stroke="black" points="404.6,-426.15 413.08,-432.5 410.41,-422.25 404.6,-426.15"/>
</g>
<!-- [1/6,2/3] -->
<g id="node17" class="node">
<title>[1/6,2/3]</title>
<ellipse fill="none" stroke="black" cx="273.45" cy="-378" rx="47.39" ry="18"/>
<text text-anchor="middle" x="273.45" y="-374.3" font-family="Helvetica:bold" font-size="14.00" fill="#377eb8">[1/6,2/3]</text>
</g>
<!-- [3/6,0/0]&#45;&gt;[1/6,2/3] -->
<g id="edge24" class="edge">
<title>[3/6,0/0]&#45;&gt;[1/6,2/3]</title>
<path fill="none" stroke="black" d="M500.76,-316.95C453.6,-329.41 372.8,-350.75 321.32,-364.35"/>
<polygon fill="black" stroke="black" points="320.21,-361.03 311.43,-366.97 321.99,-367.8 320.21,-361.03"/>
</g>
<!-- [3/6,0/0]&#45;&gt;[2/6,0/0] -->
<g id="edge23" class="edge">
<title>[3/6,0/0]&#45;&gt;[2/6,0/0]</title>
<path fill="none" stroke="black" d="M538.35,-324.09C537.42,-343.36 533.33,-374.77 517.45,-396 505.14,-412.45 486.13,-424.57 468.49,-433.04"/>
<polygon fill="black" stroke="black" points="466.56,-430.07 458.88,-437.37 469.44,-436.45 466.56,-430.07"/>
</g>
<!-- [1/6,3/3]&#45;&gt;[1/6,2/3] -->
<g id="edge28" class="edge">
<title>[1/6,3/3]&#45;&gt;[1/6,2/3]</title>
<path fill="none" stroke="black" d="M273.45,-324.3C273.45,-332.02 273.45,-341.29 273.45,-349.89"/>
<polygon fill="black" stroke="black" points="269.95,-349.9 273.45,-359.9 276.95,-349.9 269.95,-349.9"/>
</g>
<!-- [1/6,3/6] -->
<g id="node18" class="node">
<title>[1/6,3/6]</title>
<ellipse fill="none" stroke="black" cx="160.45" cy="-378" rx="47.39" ry="18"/>
<text text-anchor="middle" x="160.45" y="-374.3" font-family="Helvetica:bold" font-size="14.00" fill="#377eb8">[1/6,3/6]</text>
</g>
<!-- [1/6,3/3]&#45;&gt;[1/6,3/6] -->
<g id="edge29" class="edge">
<title>[1/6,3/3]&#45;&gt;[1/6,3/6]</title>
<path fill="none" stroke="black" d="M249.76,-321.67C233.18,-331.94 210.85,-345.78 192.66,-357.05"/>
<polygon fill="black" stroke="black" points="190.76,-354.1 184.1,-362.35 194.45,-360.05 190.76,-354.1"/>
</g>
<!-- [1/6,4/6]&#45;&gt;[1/6,2/3] -->
<g id="edge34" class="edge">
<title>[1/6,4/6]&#45;&gt;[1/6,2/3]</title>
<path fill="none" stroke="black" d="M83.01,-318.01C122.22,-330.16 185.39,-349.73 228.13,-362.96"/>
<polygon fill="black" stroke="black" points="227.13,-366.32 237.72,-365.93 229.2,-359.63 227.13,-366.32"/>
</g>
<!-- [1/6,4/6]&#45;&gt;[1/6,3/6] -->
<g id="edge35" class="edge">
<title>[1/6,4/6]&#45;&gt;[1/6,3/6]</title>
<path fill="none" stroke="black" d="M71.13,-321.67C87.71,-331.94 110.05,-345.78 128.24,-357.05"/>
<polygon fill="black" stroke="black" points="126.44,-360.05 136.79,-362.35 130.13,-354.1 126.44,-360.05"/>
</g>
<!-- [2/6,2/6]&#45;&gt;[1/6,3/6] -->
<g id="edge42" class="edge">
<title>[2/6,2/6]&#45;&gt;[1/6,3/6]</title>
<path fill="none" stroke="black" d="M160.45,-324.3C160.45,-332.02 160.45,-341.29 160.45,-349.89"/>
<polygon fill="black" stroke="black" points="156.95,-349.9 160.45,-359.9 163.95,-349.9 156.95,-349.9"/>
</g>
<!-- [2/3,0/0]&#45;&gt;[2/6,0/0] -->
<g id="edge17" class="edge">
<title>[2/3,0/0]&#45;&gt;[2/6,0/0]</title>
<path fill="none" stroke="black" d="M452.49,-395.95C448.17,-404.11 442.9,-414.09 438.1,-423.18"/>
<polygon fill="black" stroke="black" points="434.9,-421.73 433.32,-432.21 441.09,-425.01 434.9,-421.73"/>
</g>
<!-- [0/6,3/3] -->
<g id="node20" class="node">
<title>[0/6,3/3]</title>
<ellipse fill="none" stroke="black" cx="311.45" cy="-450" rx="47.39" ry="18"/>
<text text-anchor="middle" x="311.45" y="-446.3" font-family="Helvetica:bold" font-size="14.00" fill="#377eb8">[0/6,3/3]</text>
</g>
<!-- [1/6,2/3]&#45;&gt;[0/6,3/3] -->
<g id="edge38" class="edge">
<title>[1/6,2/3]&#45;&gt;[0/6,3/3]</title>
<path fill="none" stroke="black" d="M282.64,-395.95C287.08,-404.11 292.49,-414.09 297.43,-423.18"/>
<polygon fill="black" stroke="black" points="294.48,-425.09 302.33,-432.21 300.64,-421.75 294.48,-425.09"/>
</g>
<!-- [1/6,2/6] -->
<g id="node22" class="node">
<title>[1/6,2/6]</title>
<ellipse fill="none" stroke="black" cx="198.45" cy="-450" rx="47.39" ry="18"/>
<text text-anchor="middle" x="198.45" y="-446.3" font-family="Helvetica:bold" font-size="14.00" fill="#377eb8">[1/6,2/6]</text>
</g>
<!-- [1/6,2/3]&#45;&gt;[1/6,2/6] -->
<g id="edge39" class="edge">
<title>[1/6,2/3]&#45;&gt;[1/6,2/6]</title>
<path fill="none" stroke="black" d="M256.43,-394.88C246.55,-404.1 233.94,-415.87 223,-426.08"/>
<polygon fill="black" stroke="black" points="220.32,-423.8 215.4,-433.18 225.1,-428.91 220.32,-423.8"/>
</g>
<!-- [0/6,4/6] -->
<g id="node21" class="node">
<title>[0/6,4/6]</title>
<ellipse fill="none" stroke="black" cx="85.45" cy="-450" rx="47.39" ry="18"/>
<text text-anchor="middle" x="85.45" y="-446.3" font-family="Helvetica:bold" font-size="14.00" fill="#377eb8">[0/6,4/6]</text>
</g>
<!-- [1/6,3/6]&#45;&gt;[0/6,4/6] -->
<g id="edge43" class="edge">
<title>[1/6,3/6]&#45;&gt;[0/6,4/6]</title>
<path fill="none" stroke="black" d="M143.43,-394.88C133.55,-404.1 120.94,-415.87 110,-426.08"/>
<polygon fill="black" stroke="black" points="107.32,-423.8 102.4,-433.18 112.1,-428.91 107.32,-423.8"/>
</g>
<!-- [1/6,3/6]&#45;&gt;[1/6,2/6] -->
<g id="edge44" class="edge">
<title>[1/6,3/6]&#45;&gt;[1/6,2/6]</title>
<path fill="none" stroke="black" d="M169.64,-395.95C174.08,-404.11 179.49,-414.09 184.43,-423.18"/>
<polygon fill="black" stroke="black" points="181.48,-425.09 189.33,-432.21 187.64,-421.75 181.48,-425.09"/>
</g>
<!-- [0/6,2/3] -->
<g id="node23" class="node">
<title>[0/6,2/3]</title>
<ellipse fill="none" stroke="black" cx="311.45" cy="-522" rx="47.39" ry="18"/>
<text text-anchor="middle" x="311.45" y="-518.3" font-family="Helvetica:bold" font-size="14.00" fill="#377eb8">[0/6,2/3]</text>
</g>
<!-- [2/6,0/0]&#45;&gt;[0/6,2/3] -->
<g id="edge36" class="edge">
<title>[2/6,0/0]&#45;&gt;[0/6,2/3]</title>
<path fill="none" stroke="black" d="M400.76,-465.67C384.18,-475.94 361.85,-489.78 343.66,-501.05"/>
<polygon fill="black" stroke="black" points="341.76,-498.1 335.1,-506.35 345.45,-504.05 341.76,-498.1"/>
</g>
<!-- [1/6,1/6] -->
<g id="node25" class="node">
<title>[1/6,1/6]</title>
<ellipse fill="none" stroke="black" cx="424.45" cy="-522" rx="47.39" ry="18"/>
<text text-anchor="middle" x="424.45" y="-518.3" font-family="Helvetica:bold" font-size="14.00" fill="#4daf4a">[1/6,1/6]</text>
</g>
<!-- [2/6,0/0]&#45;&gt;[1/6,1/6] -->
<g id="edge37" class="edge">
<title>[2/6,0/0]&#45;&gt;[1/6,1/6]</title>
<path fill="none" stroke="black" d="M424.45,-468.3C424.45,-476.02 424.45,-485.29 424.45,-493.89"/>
<polygon fill="black" stroke="black" points="420.95,-493.9 424.45,-503.9 427.95,-493.9 420.95,-493.9"/>
</g>
<!-- [0/6,3/3]&#45;&gt;[0/6,2/3] -->
<g id="edge40" class="edge">
<title>[0/6,3/3]&#45;&gt;[0/6,2/3]</title>
<path fill="none" stroke="black" d="M311.45,-468.3C311.45,-476.02 311.45,-485.29 311.45,-493.89"/>
<polygon fill="black" stroke="black" points="307.95,-493.9 311.45,-503.9 314.95,-493.9 307.95,-493.9"/>
</g>
<!-- [0/6,3/6] -->
<g id="node24" class="node">
<title>[0/6,3/6]</title>
<ellipse fill="none" stroke="black" cx="198.45" cy="-522" rx="47.39" ry="18"/>
<text text-anchor="middle" x="198.45" y="-518.3" font-family="Helvetica:bold" font-size="14.00" fill="#377eb8">[0/6,3/6]</text>
</g>
<!-- [0/6,3/3]&#45;&gt;[0/6,3/6] -->
<g id="edge41" class="edge">
<title>[0/6,3/3]&#45;&gt;[0/6,3/6]</title>
<path fill="none" stroke="black" d="M287.76,-465.67C271.18,-475.94 248.85,-489.78 230.66,-501.05"/>
<polygon fill="black" stroke="black" points="228.76,-498.1 222.1,-506.35 232.45,-504.05 228.76,-498.1"/>
</g>
<!-- [0/6,4/6]&#45;&gt;[0/6,2/3] -->
<g id="edge45" class="edge">
<title>[0/6,4/6]&#45;&gt;[0/6,2/3]</title>
<path fill="none" stroke="black" d="M121.01,-462.01C160.22,-474.16 223.39,-493.73 266.13,-506.96"/>
<polygon fill="black" stroke="black" points="265.13,-510.32 275.72,-509.93 267.2,-503.63 265.13,-510.32"/>
</g>
<!-- [0/6,4/6]&#45;&gt;[0/6,3/6] -->
<g id="edge46" class="edge">
<title>[0/6,4/6]&#45;&gt;[0/6,3/6]</title>
<path fill="none" stroke="black" d="M109.13,-465.67C125.71,-475.94 148.05,-489.78 166.24,-501.05"/>
<polygon fill="black" stroke="black" points="164.44,-504.05 174.79,-506.35 168.13,-498.1 164.44,-504.05"/>
</g>
<!-- [1/6,2/6]&#45;&gt;[0/6,3/6] -->
<g id="edge49" class="edge">
<title>[1/6,2/6]&#45;&gt;[0/6,3/6]</title>
<path fill="none" stroke="black" d="M198.45,-468.3C198.45,-476.02 198.45,-485.29 198.45,-493.89"/>
<polygon fill="black" stroke="black" points="194.95,-493.9 198.45,-503.9 201.95,-493.9 194.95,-493.9"/>
</g>
<!-- [1/6,2/6]&#45;&gt;[1/6,1/6] -->
<g id="edge50" class="edge">
<title>[1/6,2/6]&#45;&gt;[1/6,1/6]</title>
<path fill="none" stroke="black" d="M234.01,-462.01C273.22,-474.16 336.39,-493.73 379.13,-506.96"/>
<polygon fill="black" stroke="black" points="378.13,-510.32 388.72,-509.93 380.2,-503.63 378.13,-510.32"/>
</g>
<!-- [0/3,1/6] -->
<g id="node26" class="node">
<title>[0/3,1/6]</title>
<ellipse fill="none" stroke="black" cx="198.45" cy="-594" rx="47.39" ry="18"/>
<text text-anchor="middle" x="198.45" y="-590.3" font-family="Helvetica:bold" font-size="14.00" fill="#4daf4a">[0/3,1/6]</text>
</g>
<!-- [0/6,2/3]&#45;&gt;[0/3,1/6] -->
<g id="edge47" class="edge">
<title>[0/6,2/3]&#45;&gt;[0/3,1/6]</title>
<path fill="none" stroke="black" d="M287.76,-537.67C271.18,-547.94 248.85,-561.78 230.66,-573.05"/>
<polygon fill="black" stroke="black" points="228.76,-570.1 222.1,-578.35 232.45,-576.05 228.76,-570.1"/>
</g>
<!-- [0/6,2/6] -->
<g id="node27" class="node">
<title>[0/6,2/6]</title>
<ellipse fill="none" stroke="black" cx="311.45" cy="-594" rx="47.39" ry="18"/>
<text text-anchor="middle" x="311.45" y="-590.3" font-family="Helvetica:bold" font-size="14.00" fill="#377eb8">[0/6,2/6]</text>
</g>
<!-- [0/6,2/3]&#45;&gt;[0/6,2/6] -->
<g id="edge48" class="edge">
<title>[0/6,2/3]&#45;&gt;[0/6,2/6]</title>
<path fill="none" stroke="black" d="M311.45,-540.3C311.45,-548.02 311.45,-557.29 311.45,-565.89"/>
<polygon fill="black" stroke="black" points="307.95,-565.9 311.45,-575.9 314.95,-565.9 307.95,-565.9"/>
</g>
<!-- [0/6,3/6]&#45;&gt;[0/3,1/6] -->
<g id="edge51" class="edge">
<title>[0/6,3/6]&#45;&gt;[0/3,1/6]</title>
<path fill="none" stroke="black" d="M198.45,-540.3C198.45,-548.02 198.45,-557.29 198.45,-565.89"/>
<polygon fill="black" stroke="black" points="194.95,-565.9 198.45,-575.9 201.95,-565.9 194.95,-565.9"/>
</g>
<!-- [0/6,3/6]&#45;&gt;[0/6,2/6] -->
<g id="edge52" class="edge">
<title>[0/6,3/6]&#45;&gt;[0/6,2/6]</title>
<path fill="none" stroke="black" d="M222.13,-537.67C238.71,-547.94 261.05,-561.78 279.24,-573.05"/>
<polygon fill="black" stroke="black" points="277.44,-576.05 287.79,-578.35 281.13,-570.1 277.44,-576.05"/>
</g>
<!-- [1/6,1/6]&#45;&gt;[0/6,2/6] -->
<g id="edge54" class="edge">
<title>[1/6,1/6]&#45;&gt;[0/6,2/6]</title>
<path fill="none" stroke="black" d="M400.76,-537.67C384.18,-547.94 361.85,-561.78 343.66,-573.05"/>
<polygon fill="black" stroke="black" points="341.76,-570.1 335.1,-578.35 345.45,-576.05 341.76,-570.1"/>
</g>
<!-- [1/6,0/6] -->
<g id="node29" class="node">
<title>[1/6,0/6]</title>
<ellipse fill="none" stroke="black" cx="424.45" cy="-666" rx="47.39" ry="18"/>
<text text-anchor="middle" x="424.45" y="-662.3" font-family="Helvetica:bold" font-size="14.00" fill="#4daf4a">[1/6,0/6]</text>
</g>
<!-- [1/6,1/6]&#45;&gt;[1/6,0/6] -->
<g id="edge55" class="edge">
<title>[1/6,1/6]&#45;&gt;[1/6,0/6]</title>
<path fill="none" stroke="black" d="M424.45,-540.13C424.45,-564.33 424.45,-608.79 424.45,-637.61"/>
<polygon fill="black" stroke="black" points="420.95,-637.81 424.45,-647.81 427.95,-637.81 420.95,-637.81"/>
</g>
<!-- [0/3,0/6] -->
<g id="node28" class="node">
<title>[0/3,0/6]</title>
<ellipse fill="none" stroke="black" cx="255.45" cy="-666" rx="47.39" ry="18"/>
<text text-anchor="middle" x="255.45" y="-662.3" font-family="Helvetica:bold" font-size="14.00" fill="#4daf4a">[0/3,0/6]</text>
</g>
<!-- [0/3,1/6]&#45;&gt;[0/3,0/6] -->
<g id="edge53" class="edge">
<title>[0/3,1/6]&#45;&gt;[0/3,0/6]</title>
<path fill="none" stroke="black" d="M211.95,-611.59C218.98,-620.22 227.71,-630.94 235.5,-640.5"/>
<polygon fill="black" stroke="black" points="233.01,-642.99 242.03,-648.53 238.43,-638.57 233.01,-642.99"/>
</g>
<!-- [0/6,2/6]&#45;&gt;[0/3,0/6] -->
<g id="edge56" class="edge">
<title>[0/6,2/6]&#45;&gt;[0/3,0/6]</title>
<path fill="none" stroke="black" d="M298.17,-611.59C291.27,-620.22 282.7,-630.94 275.04,-640.5"/>
<polygon fill="black" stroke="black" points="272.14,-638.53 268.62,-648.53 277.6,-642.91 272.14,-638.53"/>
</g>
</g>
</svg>
