<?xml version="1.0" encoding="UTF-8" standalone="no"?>
<!DOCTYPE svg PUBLIC "-//W3C//DTD SVG 1.1//EN"
 "http://www.w3.org/Graphics/SVG/1.1/DTD/svg11.dtd">
<!-- Generated by graphviz version 2.43.0 (0)
 -->
<!-- Title: hasseD2 Pages: 1 -->
<svg width="460pt" height="1124pt"
 viewBox="0.00 0.00 459.89 1124.00" xmlns="http://www.w3.org/2000/svg" xmlns:xlink="http://www.w3.org/1999/xlink">
<g id="graph0" class="graph" transform="scale(1 1) rotate(0) translate(4 1120)">
<title>hasseD2</title>
<polygon fill="white" stroke="transparent" points="-4,4 -4,-1120 455.89,-1120 455.89,4 -4,4"/>
<!-- [3/6,4/6] -->
<g id="node1" class="node">
<title>[3/6,4/6]</title>
<ellipse fill="none" stroke="black" cx="215.45" cy="-18" rx="47.39" ry="18"/>
<text text-anchor="middle" x="215.45" y="-14.3" font-family="Helvetica:bold" font-size="14.00" fill="#e41a1c">[3/6,4/6]</text>
</g>
<!-- [3/6,3/3] -->
<g id="node2" class="node">
<title>[3/6,3/3]</title>
<ellipse fill="none" stroke="black" cx="215.45" cy="-90" rx="47.39" ry="18"/>
<text text-anchor="middle" x="215.45" y="-86.3" font-family="Helvetica:bold" font-size="14.00" fill="#e41a1c">[3/6,3/3]</text>
</g>
<!-- [3/6,4/6]&#45;&gt;[3/6,3/3] -->
<g id="edge1" class="edge">
<title>[3/6,4/6]&#45;&gt;[3/6,3/3]</title>
<path fill="none" stroke="black" d="M215.45,-36.3C215.45,-44.02 215.45,-53.29 215.45,-61.89"/>
<polygon fill="black" stroke="black" points="211.95,-61.9 215.45,-71.9 218.95,-61.9 211.95,-61.9"/>
</g>
<!-- [3/6,3/6] -->
<g id="node3" class="node">
<title>[3/6,3/6]</title>
<ellipse fill="none" stroke="black" cx="215.45" cy="-162" rx="47.39" ry="18"/>
<text text-anchor="middle" x="215.45" y="-158.3" font-family="Helvetica:bold" font-size="14.00" fill="#e41a1c">[3/6,3/6]</text>
</g>
<!-- [3/6,3/3]&#45;&gt;[3/6,3/6] -->
<g id="edge2" class="edge">
<title>[3/6,3/3]&#45;&gt;[3/6,3/6]</title>
<path fill="none" stroke="black" d="M215.45,-108.3C215.45,-116.02 215.45,-125.29 215.45,-133.89"/>
<polygon fill="black" stroke="black" points="211.95,-133.9 215.45,-143.9 218.95,-133.9 211.95,-133.9"/>
</g>
<!-- [2/6,4/6] -->
<g id="node4" class="node">
<title>[2/6,4/6]</title>
<ellipse fill="none" stroke="black" cx="272.45" cy="-234" rx="47.39" ry="18"/>
<text text-anchor="middle" x="272.45" y="-230.3" font-family="Helvetica:bold" font-size="14.00" fill="#e41a1c">[2/6,4/6]</text>
</g>
<!-- [3/6,3/6]&#45;&gt;[2/6,4/6] -->
<g id="edge3" class="edge">
<title>[3/6,3/6]&#45;&gt;[2/6,4/6]</title>
<path fill="none" stroke="black" d="M228.95,-179.59C235.98,-188.22 244.71,-198.94 252.5,-208.5"/>
<polygon fill="black" stroke="black" points="250.01,-210.99 259.03,-216.53 255.43,-206.57 250.01,-210.99"/>
</g>
<!-- [3/6,2/3] -->
<g id="node5" class="node">
<title>[3/6,2/3]</title>
<ellipse fill="none" stroke="black" cx="159.45" cy="-234" rx="47.39" ry="18"/>
<text text-anchor="middle" x="159.45" y="-230.3" font-family="Helvetica:bold" font-size="14.00" fill="#e41a1c">[3/6,2/3]</text>
</g>
<!-- [3/6,3/6]&#45;&gt;[3/6,2/3] -->
<g id="edge4" class="edge">
<title>[3/6,3/6]&#45;&gt;[3/6,2/3]</title>
<path fill="none" stroke="black" d="M202.17,-179.59C195.27,-188.22 186.7,-198.94 179.04,-208.5"/>
<polygon fill="black" stroke="black" points="176.14,-206.53 172.62,-216.53 181.6,-210.91 176.14,-206.53"/>
</g>
<!-- [2/6,3/3] -->
<g id="node6" class="node">
<title>[2/6,3/3]</title>
<ellipse fill="none" stroke="black" cx="272.45" cy="-306" rx="47.39" ry="18"/>
<text text-anchor="middle" x="272.45" y="-302.3" font-family="Helvetica:bold" font-size="14.00" fill="#e41a1c">[2/6,3/3]</text>
</g>
<!-- [2/6,4/6]&#45;&gt;[2/6,3/3] -->
<g id="edge5" class="edge">
<title>[2/6,4/6]&#45;&gt;[2/6,3/3]</title>
<path fill="none" stroke="black" d="M272.45,-252.3C272.45,-260.02 272.45,-269.29 272.45,-277.89"/>
<polygon fill="black" stroke="black" points="268.95,-277.9 272.45,-287.9 275.95,-277.9 268.95,-277.9"/>
</g>
<!-- [3/6,2/3]&#45;&gt;[2/6,3/3] -->
<g id="edge6" class="edge">
<title>[3/6,2/3]&#45;&gt;[2/6,3/3]</title>
<path fill="none" stroke="black" d="M183.13,-249.67C199.71,-259.94 222.05,-273.78 240.24,-285.05"/>
<polygon fill="black" stroke="black" points="238.44,-288.05 248.79,-290.35 242.13,-282.1 238.44,-288.05"/>
</g>
<!-- [3/6,2/6] -->
<g id="node7" class="node">
<title>[3/6,2/6]</title>
<ellipse fill="none" stroke="black" cx="159.45" cy="-306" rx="47.39" ry="18"/>
<text text-anchor="middle" x="159.45" y="-302.3" font-family="Helvetica:bold" font-size="14.00" fill="#e41a1c">[3/6,2/6]</text>
</g>
<!-- [3/6,2/3]&#45;&gt;[3/6,2/6] -->
<g id="edge8" class="edge">
<title>[3/6,2/3]&#45;&gt;[3/6,2/6]</title>
<path fill="none" stroke="black" d="M159.45,-252.3C159.45,-260.02 159.45,-269.29 159.45,-277.89"/>
<polygon fill="black" stroke="black" points="155.95,-277.9 159.45,-287.9 162.95,-277.9 155.95,-277.9"/>
</g>
<!-- [3/3,0/0] -->
<g id="node12" class="node">
<title>[3/3,0/0]</title>
<ellipse fill="none" stroke="black" cx="47.45" cy="-522" rx="47.39" ry="18"/>
<text text-anchor="middle" x="47.45" y="-518.3" font-family="Helvetica:bold" font-size="14.00" fill="#e41a1c">[3/3,0/0]</text>
</g>
<!-- [3/6,2/3]&#45;&gt;[3/3,0/0] -->
<g id="edge7" class="edge">
<title>[3/6,2/3]&#45;&gt;[3/3,0/0]</title>
<path fill="none" stroke="black" d="M138.16,-250.15C126.24,-259.71 112.09,-273.05 103.45,-288 64.57,-355.21 52.62,-448.24 48.99,-493.74"/>
<polygon fill="black" stroke="black" points="45.48,-493.76 48.25,-503.98 52.46,-494.26 45.48,-493.76"/>
</g>
<!-- [2/6,3/6] -->
<g id="node9" class="node">
<title>[2/6,3/6]</title>
<ellipse fill="none" stroke="black" cx="310.45" cy="-378" rx="47.39" ry="18"/>
<text text-anchor="middle" x="310.45" y="-374.3" font-family="Helvetica:bold" font-size="14.00" fill="#e41a1c">[2/6,3/6]</text>
</g>
<!-- [2/6,3/3]&#45;&gt;[2/6,3/6] -->
<g id="edge9" class="edge">
<title>[2/6,3/3]&#45;&gt;[2/6,3/6]</title>
<path fill="none" stroke="black" d="M281.64,-323.95C286.08,-332.11 291.49,-342.09 296.43,-351.18"/>
<polygon fill="black" stroke="black" points="293.48,-353.09 301.33,-360.21 299.64,-349.75 293.48,-353.09"/>
</g>
<!-- [3/6,2/6]&#45;&gt;[2/6,3/6] -->
<g id="edge13" class="edge">
<title>[3/6,2/6]&#45;&gt;[2/6,3/6]</title>
<path fill="none" stroke="black" d="M188.2,-320.33C212.06,-331.39 246.17,-347.2 272.31,-359.32"/>
<polygon fill="black" stroke="black" points="270.99,-362.57 281.54,-363.6 273.94,-356.22 270.99,-362.57"/>
</g>
<!-- [3/6,0/0] -->
<g id="node15" class="node">
<title>[3/6,0/0]</title>
<ellipse fill="none" stroke="black" cx="85.45" cy="-594" rx="47.39" ry="18"/>
<text text-anchor="middle" x="85.45" y="-590.3" font-family="Helvetica:bold" font-size="14.00" fill="#e41a1c">[3/6,0/0]</text>
</g>
<!-- [3/6,2/6]&#45;&gt;[3/6,0/0] -->
<g id="edge14" class="edge">
<title>[3/6,2/6]&#45;&gt;[3/6,0/0]</title>
<path fill="none" stroke="black" d="M153.09,-324.03C149.38,-334.34 144.79,-347.82 141.45,-360 119.82,-438.85 125.08,-461.15 103.45,-540 101.07,-548.66 98.06,-557.98 95.19,-566.34"/>
<polygon fill="black" stroke="black" points="91.82,-565.38 91.81,-575.97 98.42,-567.7 91.82,-565.38"/>
</g>
<!-- [4/6,0/0] -->
<g id="node8" class="node">
<title>[4/6,0/0]</title>
<ellipse fill="none" stroke="black" cx="197.45" cy="-378" rx="47.39" ry="18"/>
<text text-anchor="middle" x="197.45" y="-374.3" font-family="Helvetica:bold" font-size="14.00" fill="#e41a1c">[4/6,0/0]</text>
</g>
<!-- [2/6,2/3] -->
<g id="node11" class="node">
<title>[2/6,2/3]</title>
<ellipse fill="none" stroke="black" cx="235.45" cy="-450" rx="47.39" ry="18"/>
<text text-anchor="middle" x="235.45" y="-446.3" font-family="Helvetica:bold" font-size="14.00" fill="#e41a1c">[2/6,2/3]</text>
</g>
<!-- [4/6,0/0]&#45;&gt;[2/6,2/3] -->
<g id="edge11" class="edge">
<title>[4/6,0/0]&#45;&gt;[2/6,2/3]</title>
<path fill="none" stroke="black" d="M206.64,-395.95C211.08,-404.11 216.49,-414.09 221.43,-423.18"/>
<polygon fill="black" stroke="black" points="218.48,-425.09 226.33,-432.21 224.64,-421.75 218.48,-425.09"/>
</g>
<!-- [4/6,0/0]&#45;&gt;[3/3,0/0] -->
<g id="edge10" class="edge">
<title>[4/6,0/0]&#45;&gt;[3/3,0/0]</title>
<path fill="none" stroke="black" d="M180.53,-395.01C153.97,-420.15 102.38,-469 71.82,-497.93"/>
<polygon fill="black" stroke="black" points="69.39,-495.41 64.53,-504.83 74.2,-500.49 69.39,-495.41"/>
</g>
<!-- [1/6,4/6] -->
<g id="node10" class="node">
<title>[1/6,4/6]</title>
<ellipse fill="none" stroke="black" cx="348.45" cy="-450" rx="47.39" ry="18"/>
<text text-anchor="middle" x="348.45" y="-446.3" font-family="Helvetica:bold" font-size="14.00" fill="#377eb8">[1/6,4/6]</text>
</g>
<!-- [2/6,3/6]&#45;&gt;[1/6,4/6] -->
<g id="edge15" class="edge">
<title>[2/6,3/6]&#45;&gt;[1/6,4/6]</title>
<path fill="none" stroke="black" d="M319.64,-395.95C324.08,-404.11 329.49,-414.09 334.43,-423.18"/>
<polygon fill="black" stroke="black" points="331.48,-425.09 339.33,-432.21 337.64,-421.75 331.48,-425.09"/>
</g>
<!-- [2/6,3/6]&#45;&gt;[2/6,2/3] -->
<g id="edge16" class="edge">
<title>[2/6,3/6]&#45;&gt;[2/6,2/3]</title>
<path fill="none" stroke="black" d="M293.43,-394.88C283.55,-404.1 270.94,-415.87 260,-426.08"/>
<polygon fill="black" stroke="black" points="257.32,-423.8 252.4,-433.18 262.1,-428.91 257.32,-423.8"/>
</g>
<!-- [1/6,3/3] -->
<g id="node13" class="node">
<title>[1/6,3/3]</title>
<ellipse fill="none" stroke="black" cx="348.45" cy="-522" rx="47.39" ry="18"/>
<text text-anchor="middle" x="348.45" y="-518.3" font-family="Helvetica:bold" font-size="14.00" fill="#377eb8">[1/6,3/3]</text>
</g>
<!-- [1/6,4/6]&#45;&gt;[1/6,3/3] -->
<g id="edge17" class="edge">
<title>[1/6,4/6]&#45;&gt;[1/6,3/3]</title>
<path fill="none" stroke="black" d="M348.45,-468.3C348.45,-476.02 348.45,-485.29 348.45,-493.89"/>
<polygon fill="black" stroke="black" points="344.95,-493.9 348.45,-503.9 351.95,-493.9 344.95,-493.9"/>
</g>
<!-- [2/6,2/3]&#45;&gt;[1/6,3/3] -->
<g id="edge18" class="edge">
<title>[2/6,2/3]&#45;&gt;[1/6,3/3]</title>
<path fill="none" stroke="black" d="M259.13,-465.67C275.71,-475.94 298.05,-489.78 316.24,-501.05"/>
<polygon fill="black" stroke="black" points="314.44,-504.05 324.79,-506.35 318.13,-498.1 314.44,-504.05"/>
</g>
<!-- [2/6,2/6] -->
<g id="node14" class="node">
<title>[2/6,2/6]</title>
<ellipse fill="none" stroke="black" cx="235.45" cy="-522" rx="47.39" ry="18"/>
<text text-anchor="middle" x="235.45" y="-518.3" font-family="Helvetica:bold" font-size="14.00" fill="#e41a1c">[2/6,2/6]</text>
</g>
<!-- [2/6,2/3]&#45;&gt;[2/6,2/6] -->
<g id="edge20" class="edge">
<title>[2/6,2/3]&#45;&gt;[2/6,2/6]</title>
<path fill="none" stroke="black" d="M235.45,-468.3C235.45,-476.02 235.45,-485.29 235.45,-493.89"/>
<polygon fill="black" stroke="black" points="231.95,-493.9 235.45,-503.9 238.95,-493.9 231.95,-493.9"/>
</g>
<!-- [2/3,0/0] -->
<g id="node19" class="node">
<title>[2/3,0/0]</title>
<ellipse fill="none" stroke="black" cx="141.45" cy="-738" rx="47.39" ry="18"/>
<text text-anchor="middle" x="141.45" y="-734.3" font-family="Helvetica:bold" font-size="14.00" fill="#e41a1c">[2/3,0/0]</text>
</g>
<!-- [2/6,2/3]&#45;&gt;[2/3,0/0] -->
<g id="edge19" class="edge">
<title>[2/6,2/3]&#45;&gt;[2/3,0/0]</title>
<path fill="none" stroke="black" d="M213.46,-466.15C201.47,-475.61 187.47,-488.86 179.45,-504 143.72,-571.42 139.86,-663.99 140.41,-709.48"/>
<polygon fill="black" stroke="black" points="136.92,-709.81 140.62,-719.74 143.91,-709.67 136.92,-709.81"/>
</g>
<!-- [3/3,0/0]&#45;&gt;[3/6,0/0] -->
<g id="edge12" class="edge">
<title>[3/3,0/0]&#45;&gt;[3/6,0/0]</title>
<path fill="none" stroke="black" d="M56.64,-539.95C61.08,-548.11 66.49,-558.09 71.43,-567.18"/>
<polygon fill="black" stroke="black" points="68.48,-569.09 76.33,-576.21 74.64,-565.75 68.48,-569.09"/>
</g>
<!-- [1/6,3/6] -->
<g id="node16" class="node">
<title>[1/6,3/6]</title>
<ellipse fill="none" stroke="black" cx="328.45" cy="-594" rx="47.39" ry="18"/>
<text text-anchor="middle" x="328.45" y="-590.3" font-family="Helvetica:bold" font-size="14.00" fill="#377eb8">[1/6,3/6]</text>
</g>
<!-- [1/6,3/3]&#45;&gt;[1/6,3/6] -->
<g id="edge21" class="edge">
<title>[1/6,3/3]&#45;&gt;[1/6,3/6]</title>
<path fill="none" stroke="black" d="M343.6,-539.95C341.38,-547.74 338.68,-557.18 336.18,-565.92"/>
<polygon fill="black" stroke="black" points="332.76,-565.15 333.38,-575.72 339.49,-567.07 332.76,-565.15"/>
</g>
<!-- [2/6,2/6]&#45;&gt;[1/6,3/6] -->
<g id="edge25" class="edge">
<title>[2/6,2/6]&#45;&gt;[1/6,3/6]</title>
<path fill="none" stroke="black" d="M256.09,-538.54C268.85,-548.14 285.42,-560.62 299.49,-571.2"/>
<polygon fill="black" stroke="black" points="297.77,-574.29 307.86,-577.51 301.98,-568.7 297.77,-574.29"/>
</g>
<!-- [2/6,0/0] -->
<g id="node22" class="node">
<title>[2/6,0/0]</title>
<ellipse fill="none" stroke="black" cx="216.45" cy="-810" rx="47.39" ry="18"/>
<text text-anchor="middle" x="216.45" y="-806.3" font-family="Helvetica:bold" font-size="14.00" fill="#e41a1c">[2/6,0/0]</text>
</g>
<!-- [2/6,2/6]&#45;&gt;[2/6,0/0] -->
<g id="edge26" class="edge">
<title>[2/6,2/6]&#45;&gt;[2/6,0/0]</title>
<path fill="none" stroke="black" d="M234.31,-540.03C231.15,-587.71 222.17,-722.82 218.28,-781.37"/>
<polygon fill="black" stroke="black" points="214.77,-781.48 217.6,-791.69 221.75,-781.95 214.77,-781.48"/>
</g>
<!-- [1/6,2/3] -->
<g id="node18" class="node">
<title>[1/6,2/3]</title>
<ellipse fill="none" stroke="black" cx="291.45" cy="-666" rx="47.39" ry="18"/>
<text text-anchor="middle" x="291.45" y="-662.3" font-family="Helvetica:bold" font-size="14.00" fill="#377eb8">[1/6,2/3]</text>
</g>
<!-- [3/6,0/0]&#45;&gt;[1/6,2/3] -->
<g id="edge23" class="edge">
<title>[3/6,0/0]&#45;&gt;[1/6,2/3]</title>
<path fill="none" stroke="black" d="M119.46,-606.56C154.5,-618.47 209.25,-637.07 247.53,-650.08"/>
<polygon fill="black" stroke="black" points="246.78,-653.52 257.38,-653.42 249.04,-646.89 246.78,-653.52"/>
</g>
<!-- [3/6,0/0]&#45;&gt;[2/3,0/0] -->
<g id="edge22" class="edge">
<title>[3/6,0/0]&#45;&gt;[2/3,0/0]</title>
<path fill="none" stroke="black" d="M92.09,-611.85C101.73,-636.29 119.69,-681.83 131.08,-710.71"/>
<polygon fill="black" stroke="black" points="127.89,-712.16 134.81,-720.18 134.4,-709.59 127.89,-712.16"/>
</g>
<!-- [0/6,4/6] -->
<g id="node17" class="node">
<title>[0/6,4/6]</title>
<ellipse fill="none" stroke="black" cx="404.45" cy="-666" rx="47.39" ry="18"/>
<text text-anchor="middle" x="404.45" y="-662.3" font-family="Helvetica:bold" font-size="14.00" fill="#377eb8">[0/6,4/6]</text>
</g>
<!-- [1/6,3/6]&#45;&gt;[0/6,4/6] -->
<g id="edge27" class="edge">
<title>[1/6,3/6]&#45;&gt;[0/6,4/6]</title>
<path fill="none" stroke="black" d="M345.69,-610.88C355.8,-620.19 368.73,-632.1 379.88,-642.38"/>
<polygon fill="black" stroke="black" points="377.54,-644.98 387.27,-649.18 382.28,-639.83 377.54,-644.98"/>
</g>
<!-- [1/6,3/6]&#45;&gt;[1/6,2/3] -->
<g id="edge28" class="edge">
<title>[1/6,3/6]&#45;&gt;[1/6,2/3]</title>
<path fill="none" stroke="black" d="M319.49,-611.95C315.17,-620.11 309.9,-630.09 305.1,-639.18"/>
<polygon fill="black" stroke="black" points="301.9,-637.73 300.32,-648.21 308.09,-641.01 301.9,-637.73"/>
</g>
<!-- [0/6,3/3] -->
<g id="node20" class="node">
<title>[0/6,3/3]</title>
<ellipse fill="none" stroke="black" cx="404.45" cy="-738" rx="47.39" ry="18"/>
<text text-anchor="middle" x="404.45" y="-734.3" font-family="Helvetica:bold" font-size="14.00" fill="#377eb8">[0/6,3/3]</text>
</g>
<!-- [0/6,4/6]&#45;&gt;[0/6,3/3] -->
<g id="edge29" class="edge">
<title>[0/6,4/6]&#45;&gt;[0/6,3/3]</title>
<path fill="none" stroke="black" d="M404.45,-684.3C404.45,-692.02 404.45,-701.29 404.45,-709.89"/>
<polygon fill="black" stroke="black" points="400.95,-709.9 404.45,-719.9 407.95,-709.9 400.95,-709.9"/>
</g>
<!-- [1/6,2/3]&#45;&gt;[0/6,3/3] -->
<g id="edge30" class="edge">
<title>[1/6,2/3]&#45;&gt;[0/6,3/3]</title>
<path fill="none" stroke="black" d="M315.13,-681.67C331.71,-691.94 354.05,-705.78 372.24,-717.05"/>
<polygon fill="black" stroke="black" points="370.44,-720.05 380.79,-722.35 374.13,-714.1 370.44,-720.05"/>
</g>
<!-- [1/6,2/6] -->
<g id="node21" class="node">
<title>[1/6,2/6]</title>
<ellipse fill="none" stroke="black" cx="291.45" cy="-738" rx="47.39" ry="18"/>
<text text-anchor="middle" x="291.45" y="-734.3" font-family="Helvetica:bold" font-size="14.00" fill="#377eb8">[1/6,2/6]</text>
</g>
<!-- [1/6,2/3]&#45;&gt;[1/6,2/6] -->
<g id="edge31" class="edge">
<title>[1/6,2/3]&#45;&gt;[1/6,2/6]</title>
<path fill="none" stroke="black" d="M291.45,-684.3C291.45,-692.02 291.45,-701.29 291.45,-709.89"/>
<polygon fill="black" stroke="black" points="287.95,-709.9 291.45,-719.9 294.95,-709.9 287.95,-709.9"/>
</g>
<!-- [2/3,0/0]&#45;&gt;[2/6,0/0] -->
<g id="edge24" class="edge">
<title>[2/3,0/0]&#45;&gt;[2/6,0/0]</title>
<path fill="none" stroke="black" d="M158.46,-754.88C168.34,-764.1 180.95,-775.87 191.89,-786.08"/>
<polygon fill="black" stroke="black" points="189.8,-788.91 199.49,-793.18 194.57,-783.8 189.8,-788.91"/>
</g>
<!-- [0/6,3/6] -->
<g id="node23" class="node">
<title>[0/6,3/6]</title>
<ellipse fill="none" stroke="black" cx="366.45" cy="-810" rx="47.39" ry="18"/>
<text text-anchor="middle" x="366.45" y="-806.3" font-family="Helvetica:bold" font-size="14.00" fill="#377eb8">[0/6,3/6]</text>
</g>
<!-- [0/6,3/3]&#45;&gt;[0/6,3/6] -->
<g id="edge32" class="edge">
<title>[0/6,3/3]&#45;&gt;[0/6,3/6]</title>
<path fill="none" stroke="black" d="M395.25,-755.95C390.81,-764.11 385.4,-774.09 380.46,-783.18"/>
<polygon fill="black" stroke="black" points="377.25,-781.75 375.56,-792.21 383.41,-785.09 377.25,-781.75"/>
</g>
<!-- [1/6,2/6]&#45;&gt;[0/6,3/6] -->
<g id="edge35" class="edge">
<title>[1/6,2/6]&#45;&gt;[0/6,3/6]</title>
<path fill="none" stroke="black" d="M308.46,-754.88C318.34,-764.1 330.95,-775.87 341.89,-786.08"/>
<polygon fill="black" stroke="black" points="339.8,-788.91 349.49,-793.18 344.57,-783.8 339.8,-788.91"/>
</g>
<!-- [1/6,1/6] -->
<g id="node25" class="node">
<title>[1/6,1/6]</title>
<ellipse fill="none" stroke="black" cx="234.45" cy="-882" rx="47.39" ry="18"/>
<text text-anchor="middle" x="234.45" y="-878.3" font-family="Helvetica:bold" font-size="14.00" fill="#4daf4a">[1/6,1/6]</text>
</g>
<!-- [1/6,2/6]&#45;&gt;[1/6,1/6] -->
<g id="edge36" class="edge">
<title>[1/6,2/6]&#45;&gt;[1/6,1/6]</title>
<path fill="none" stroke="black" d="M289.91,-756.04C287.77,-774.44 282.92,-804.3 272.45,-828 268.05,-837.94 261.61,-847.88 255.27,-856.42"/>
<polygon fill="black" stroke="black" points="252.41,-854.39 249.05,-864.44 257.95,-858.68 252.41,-854.39"/>
</g>
<!-- [0/6,2/3] -->
<g id="node24" class="node">
<title>[0/6,2/3]</title>
<ellipse fill="none" stroke="black" cx="347.45" cy="-882" rx="47.39" ry="18"/>
<text text-anchor="middle" x="347.45" y="-878.3" font-family="Helvetica:bold" font-size="14.00" fill="#377eb8">[0/6,2/3]</text>
</g>
<!-- [2/6,0/0]&#45;&gt;[0/6,2/3] -->
<g id="edge33" class="edge">
<title>[2/6,0/0]&#45;&gt;[0/6,2/3]</title>
<path fill="none" stroke="black" d="M242.96,-825.17C262.84,-835.79 290.27,-850.45 312.03,-862.08"/>
<polygon fill="black" stroke="black" points="310.51,-865.23 320.98,-866.86 313.81,-859.06 310.51,-865.23"/>
</g>
<!-- [2/6,0/0]&#45;&gt;[1/6,1/6] -->
<g id="edge34" class="edge">
<title>[2/6,0/0]&#45;&gt;[1/6,1/6]</title>
<path fill="none" stroke="black" d="M220.8,-827.95C222.81,-835.74 225.23,-845.18 227.48,-853.92"/>
<polygon fill="black" stroke="black" points="224.12,-854.91 230,-863.72 230.9,-853.17 224.12,-854.91"/>
</g>
<!-- [0/6,3/6]&#45;&gt;[0/6,2/3] -->
<g id="edge37" class="edge">
<title>[0/6,3/6]&#45;&gt;[0/6,2/3]</title>
<path fill="none" stroke="black" d="M361.85,-827.95C359.73,-835.74 357.17,-845.18 354.8,-853.92"/>
<polygon fill="black" stroke="black" points="351.38,-853.16 352.13,-863.72 358.13,-854.99 351.38,-853.16"/>
</g>
<!-- [0/6,2/6] -->
<g id="node26" class="node">
<title>[0/6,2/6]</title>
<ellipse fill="none" stroke="black" cx="347.45" cy="-954" rx="47.39" ry="18"/>
<text text-anchor="middle" x="347.45" y="-950.3" font-family="Helvetica:bold" font-size="14.00" fill="#377eb8">[0/6,2/6]</text>
</g>
<!-- [0/6,2/3]&#45;&gt;[0/6,2/6] -->
<g id="edge38" class="edge">
<title>[0/6,2/3]&#45;&gt;[0/6,2/6]</title>
<path fill="none" stroke="black" d="M347.45,-900.3C347.45,-908.02 347.45,-917.29 347.45,-925.89"/>
<polygon fill="black" stroke="black" points="343.95,-925.9 347.45,-935.9 350.95,-925.9 343.95,-925.9"/>
</g>
<!-- [1/6,1/6]&#45;&gt;[0/6,2/6] -->
<g id="edge39" class="edge">
<title>[1/6,1/6]&#45;&gt;[0/6,2/6]</title>
<path fill="none" stroke="black" d="M258.13,-897.67C274.71,-907.94 297.05,-921.78 315.24,-933.05"/>
<polygon fill="black" stroke="black" points="313.44,-936.05 323.79,-938.35 317.13,-930.1 313.44,-936.05"/>
</g>
<!-- [1/6,0/6] -->
<g id="node28" class="node">
<title>[1/6,0/6]</title>
<ellipse fill="none" stroke="black" cx="234.45" cy="-1026" rx="47.39" ry="18"/>
<text text-anchor="middle" x="234.45" y="-1022.3" font-family="Helvetica:bold" font-size="14.00" fill="#4daf4a">[1/6,0/6]</text>
</g>
<!-- [1/6,1/6]&#45;&gt;[1/6,0/6] -->
<g id="edge40" class="edge">
<title>[1/6,1/6]&#45;&gt;[1/6,0/6]</title>
<path fill="none" stroke="black" d="M234.45,-900.13C234.45,-924.33 234.45,-968.79 234.45,-997.61"/>
<polygon fill="black" stroke="black" points="230.95,-997.81 234.45,-1007.81 237.95,-997.81 230.95,-997.81"/>
</g>
<!-- [0/3,1/6] -->
<g id="node27" class="node">
<title>[0/3,1/6]</title>
<ellipse fill="none" stroke="black" cx="347.45" cy="-1026" rx="47.39" ry="18"/>
<text text-anchor="middle" x="347.45" y="-1022.3" font-family="Helvetica:bold" font-size="14.00" fill="#4daf4a">[0/3,1/6]</text>
</g>
<!-- [0/6,2/6]&#45;&gt;[0/3,1/6] -->
<g id="edge41" class="edge">
<title>[0/6,2/6]&#45;&gt;[0/3,1/6]</title>
<path fill="none" stroke="black" d="M347.45,-972.3C347.45,-980.02 347.45,-989.29 347.45,-997.89"/>
<polygon fill="black" stroke="black" points="343.95,-997.9 347.45,-1007.9 350.95,-997.9 343.95,-997.9"/>
</g>
<!-- [0/3,0/6] -->
<g id="node29" class="node">
<title>[0/3,0/6]</title>
<ellipse fill="none" stroke="black" cx="290.45" cy="-1098" rx="47.39" ry="18"/>
<text text-anchor="middle" x="290.45" y="-1094.3" font-family="Helvetica:bold" font-size="14.00" fill="#4daf4a">[0/3,0/6]</text>
</g>
<!-- [0/3,1/6]&#45;&gt;[0/3,0/6] -->
<g id="edge42" class="edge">
<title>[0/3,1/6]&#45;&gt;[0/3,0/6]</title>
<path fill="none" stroke="black" d="M333.94,-1043.59C326.91,-1052.22 318.18,-1062.94 310.39,-1072.5"/>
<polygon fill="black" stroke="black" points="307.46,-1070.57 303.86,-1080.53 312.89,-1074.99 307.46,-1070.57"/>
</g>
<!-- [1/6,0/6]&#45;&gt;[0/3,0/6] -->
<g id="edge43" class="edge">
<title>[1/6,0/6]&#45;&gt;[0/3,0/6]</title>
<path fill="none" stroke="black" d="M247.72,-1043.59C254.62,-1052.22 263.2,-1062.94 270.85,-1072.5"/>
<polygon fill="black" stroke="black" points="268.29,-1074.91 277.27,-1080.53 273.76,-1070.53 268.29,-1074.91"/>
</g>
</g>
</svg>
